<!--?xml version="1.0" encoding="UTF-8" standalone="no"?-->
<svg xmlns:dc="http://purl.org/dc/elements/1.1/" xmlns:cc="http://creativecommons.org/ns#" xmlns:rdf="http://www.w3.org/1999/02/22-rdf-syntax-ns#" xmlns:svg="http://www.w3.org/2000/svg" xmlns="http://www.w3.org/2000/svg" xmlns:sodipodi="http://sodipodi.sourceforge.net/DTD/sodipodi-0.dtd" xmlns:inkscape="http://www.inkscape.org/namespaces/inkscape" version="1.1" id="svg2" xml:space="preserve" width="2666.6667" height="2666.6667" viewBox="0 0 2666.6667 2666.6667" sodipodi:docname="5946.eps"><metadata id="metadata8"><rdf:rdf><cc:work rdf:about=""><dc:format>image/svg+xml</dc:format><dc:type rdf:resource="http://purl.org/dc/dcmitype/StillImage"></dc:type></cc:work></rdf:rdf></metadata><defs id="defs6"></defs><sodipodi:namedview pagecolor="#ffffff" bordercolor="#666666" borderopacity="1" objecttolerance="10" gridtolerance="10" guidetolerance="10" inkscape:pageopacity="0" inkscape:pageshadow="2" inkscape:window-width="640" inkscape:window-height="480" id="namedview4"></sodipodi:namedview><g id="g10" inkscape:groupmode="layer" inkscape:label="ink_ext_XXXXXX" transform="matrix(1.3333333,0,0,-1.3333333,0,2666.6667)"><g id="g12" transform="scale(0.1)"><path d="M 0,0 H 20000 V 20000 H 0 Z" style="fill:#ffffff00;fill-opacity:1;fill-rule:nonzero;stroke:none" id="path14"></path><path d="m 2894.02,9182.2 c 71.02,1362.3 -454.03,2328.6 277.9,3361.7 453.27,639.7 2200.13,1451 2653.4,2090.7 152.18,214.8 306.88,432.4 500.56,589.9 530.28,431.3 1224.38,331 1861.07,292.9 470,-28.1 944.35,-12.5 1405.59,101.2 1170.16,288.4 2171.76,1179.7 3273.16,1741.2 505.6,257.7 1034.8,446.5 1574.5,561.8 498,106.3 1021.9,147.6 1499.4,-55 477.5,-202.5 898.7,-695.1 960.1,-1306.8 34.4,-342.1 -43,-684.7 -61.7,-1028.6 -18.8,-343.9 40.8,-732.3 271.4,-931.7 186.5,-161.3 436,-157.4 646.5,-266.3 534.5,-276.5 642.3,-1144.5 572.5,-1847.3 -69.9,-702.7 -229.5,-1460.8 45.1,-2084.6 76.1,-172.8 182.6,-324.8 250.2,-502.8 81,-213.3 101.9,-452.5 113.5,-687 64.7,-1309.7 -131.6,-2637.4 -567.3,-3837.2 -72.5,-199.7 -154.4,-400.8 -285.2,-550.1 -162.2,-185.2 -382.9,-272.3 -565.3,-427.1 -204.8,-173.8 -355.8,-428.1 -556.3,-609.3 -373.6,-337.7 -867.4,-382.3 -1331.7,-414.5 -1294.1,-89.8 -2609.7,-177.5 -3871.2,185.5 -1428,410.9 -2778.81,1394 -4244.04,1301.2 -769.89,-48.7 -1562.2,-393.7 -2290.74,-86.3 -360.11,151.9 -671.84,466.7 -868.63,863.6 -208.61,420.7 -200.45,943.5 -429.92,1348.4 -152.81,269.6 -403.27,415.5 -561.2,677.9 -249.23,413.9 -297.53,1022 -271.65,1518.6" style="fill: rgb(223, 204, 255); fill-opacity: 1; fill-rule: nonzero; stroke: none;" id="path16"></path><path d="m 18585.2,6914.3 c -327.4,14.7 -653.2,57.2 -975.3,118.1 -394.9,74.6 -813.3,194.3 -1064.4,508 -70.5,88 -126.6,190.2 -216.1,258.9 -102.9,79.1 -236,103.4 -365.6,118.5 v 2065.4 c 70.7,21.9 142.3,39.9 215.7,51.5 71.4,11.3 142.5,16.2 213.5,16.2 424.2,0 843.7,-177.3 1268.5,-252.2 235.5,-41.5 474.5,-51.4 713.9,-51.4 98.1,0 196.3,1.6 294.3,3.5 43.8,-173.1 58.5,-357.6 67.5,-539.3 6.8,-138.3 10.5,-276.8 11.6,-415.4 -56.6,-4.3 -113.2,-6.6 -169.7,-6.6 -155.6,0 -310.1,17.7 -460.4,60 -122.6,34.6 -240.3,85 -362.9,119.5 -128.3,36.2 -261.6,54 -394.9,54 -226.9,0 -454,-51.7 -657.2,-152.9 -85.1,-42.5 -178.5,-121.1 -153.8,-213 701,-251.7 1451.8,-315.3 2186.3,-444.9 -22.2,-436.6 -72.8,-871 -151,-1297.9" style="fill: rgb(235, 217, 252); fill-opacity: 1; fill-rule: nonzero; stroke: none;" id="path18"></path><path d="m 2068.48,10888.8 c 254.74,161.9 367.45,-306.9 392.89,-434.3 110.15,-16.9 210.24,-41.9 299.68,-71.2 -85.93,132.5 -228.85,174.5 -258.53,273.8 -33.28,111.3 2.14,247.8 179.89,137.6 140.84,-87.3 125.75,-327.3 113.41,-423.3 154.03,-54 274.68,-119.8 360.05,-175 -78.04,167 -238.49,234.7 -260.52,351.1 -24.11,127.2 30.61,271.9 214.64,124.4 152.11,-121.8 97.61,-401.1 74.13,-494.3 76.93,-52.4 118.76,-91.8 123.19,-96.1 84.8,-79.2 162.46,-160 233.68,-241.5 -65.54,148.6 -191.82,235 -198.78,342.8 -8.36,129.3 63.79,263.2 228.67,88.4 130.44,-138.2 55,-388.5 17.78,-487 145.03,-173.7 261.25,-349.6 354.53,-518.8 -13.59,151.7 -131.18,360.1 -100.13,501.9 20.37,93.1 77.33,116.1 121.87,119 38.05,2.5 74.84,-14.9 101.43,-47.1 150.33,-181.7 -43.3,-509.9 -105.76,-605.7 112.56,-209.6 189.96,-408 243.03,-578.2 -6.42,78.5 -16.61,197 -24.35,258.3 -12.2,96.7 15.84,232.9 80.13,288.7 2.67,2.3 5.36,4.5 8.03,6.5 51.25,38.6 120.64,24.1 164.03,-28.3 169.77,-204.5 -139.68,-523.5 -208.39,-589.9 0.34,-1.2 0.72,-2.4 1.06,-3.6 124.18,-431.9 118.06,-737.6 117.74,-750.4 l -41.51,2.7 c 0.07,3 5.69,294 -105.86,699.2 -390.32,43.9 -506.68,296.6 -457.23,391.9 51.1,98.4 200.99,136 276.38,-46.6 43.72,-105.9 110.95,-206.3 159.74,-272 -51.78,171.8 -129.29,375.4 -244.63,591.3 -502.99,-140.8 -559.92,224.3 -459.34,311 101.8,87.8 187.84,36 275.33,-101.6 58.12,-91.4 128.19,-151.2 168.82,-181.2 -90.95,166.3 -204.56,339.4 -346.31,510.5 -58.85,-80 -222.58,-272.6 -388.73,-195.8 -207.67,95.9 -134.85,229.3 -30.57,276.8 95.9,43.7 234.62,-75.4 398.6,-56.2 -79.53,94.1 -167.54,187.6 -265.23,278.8 -1.56,1.5 -85.48,80.7 -242.41,166.7 -49.95,-89 -189.9,-302 -361.77,-249.8 -215.86,65.5 -158.67,208.8 -60.87,271.2 87.28,55.6 231.41,-35.6 386.03,-1.9 -134.58,69.5 -315.88,139.8 -538.93,174.9 -52.44,-91.9 -190.32,-295.6 -358.77,-244.4 -215.86,65.5 -158.67,208.8 -60.86,271.1 88.5,56.5 235.46,-38.2 392.55,-0.4 l 0.42,5 c -55.96,26.3 -174.85,81.7 -232.85,104.9 -77.41,30.9 -166.11,119.6 -178.78,208.7 -12.68,89 43.38,137.4 43.38,137.4" style="fill: rgb(50, 18, 79); fill-opacity: 1; fill-rule: nonzero; stroke: none;" id="path20"></path><path d="m 2418.22,8553.9 -629.6,10.1 c -219.37,395.7 -380.46,739.9 -380.46,739.9 710.74,165.3 1310.98,99.2 1811.35,-92 l 276.87,-668.7 57.93,515.5 c 1240.45,-666.2 1753.84,-2080.6 1753.84,-2080.6 0,0 -2190.31,228.8 -2654.99,443.8 -179.42,83 -405.89,382.5 -616.34,718.9 167.51,160.1 381.4,413.1 381.4,413.1" style="fill: rgb(99, 27, 172); fill-opacity: 1; fill-rule: nonzero; stroke: none;" id="path22"></path><path d="m 1408.16,9303.9 c 0,0 2813.88,-1177.5 3899.99,-2325.8 0,0 -2190.31,228.8 -2654.99,443.8 -179.42,83 -405.89,382.5 -616.34,718.9 167.51,160.1 381.4,413.1 381.4,413.1 l -629.6,10.1 c -219.37,395.7 -380.46,739.9 -380.46,739.9" style="fill: rgb(109, 33, 171); fill-opacity: 1; fill-rule: nonzero; stroke: none;" id="path24"></path><path d="m 1259.53,8565.5 c 120.19,199.1 358.67,-85.7 419.88,-164.8 81.77,26.1 159.37,43.2 231.13,53.6 -104.73,62 -217.67,41.9 -272.2,100.2 -61.13,65.4 -83.49,171.7 76.88,156.6 127.07,-11.9 198.96,-182.6 223.36,-253.1 124.77,15.6 230.51,11.6 308.35,2.8 -111.1,88.4 -244.99,80.1 -300.06,152.8 -60.27,79.5 -72.11,198 105.36,159.4 146.69,-31.8 204.84,-243.1 220.61,-315.5 71.02,-9.8 113.39,-22.6 117.92,-24 85.63,-25.6 166.91,-54.7 243.97,-86.5 -96.17,80.1 -212.87,96.3 -254.63,168.3 -50.11,86.3 -46.25,203.4 127.4,139.4 137.37,-50.7 171.13,-249.1 179.24,-329.9 159.58,-70.1 300.03,-151.5 422.39,-236.2 -61.39,100 -213.93,203.4 -241.14,311.8 -17.85,71.2 13.52,106.6 43.25,123.9 25.39,14.8 56.75,15.3 86.11,2.3 166,-73.8 144.96,-366.6 134.71,-454.1 149.51,-105.9 270.92,-216.3 365.87,-315.5 -31.34,52 -78.98,130.2 -105.36,169.9 -41.58,62.5 -68.93,166 -43.72,226.6 1.05,2.5 2.16,4.9 3.31,7.2 22.12,44.2 74.97,58 122.84,36.8 187.22,-82.9 83.15,-409.1 58.54,-478.4 l 1.95,-2.1 c 233.72,-255.3 334.3,-468.3 338.47,-477.2 l -29.57,-12.4 c -0.97,2.1 -96.87,204.8 -312.72,446 -284.27,-103.5 -451.16,30.9 -449.7,113.5 1.51,85.4 92,162.7 206.59,62.6 66.46,-58 147.24,-104.2 203.41,-132.8 -94.61,100.8 -217.86,214.6 -371.44,324 -298.64,-269.6 -463.09,-37.3 -423.45,57 40.13,95.4 117.24,89.2 224.75,24.3 71.41,-43.1 140.26,-60.3 178.57,-67.1 -119.75,83.5 -257.44,163.9 -413.9,233.4 -13.14,-75.4 -60.05,-264.3 -200.96,-268.4 -176.11,-5 -171.62,111.9 -115.98,180.5 51.16,63 187.67,28.4 294.17,97.9 -87.11,37.6 -179.84,71.9 -278.52,101.3 -1.59,0.6 -86.6,26.4 -224.34,31.9 -3.93,-78.5 -27.45,-273.4 -163.87,-296.3 -171.34,-28.8 -181.04,89.6 -134.95,166.2 41.12,68.2 171.78,54.8 266.87,131 -116.63,1.8 -265.79,-11.8 -431.67,-64.1 -4.65,-81.4 -29.92,-269.1 -163.64,-291.6 -171.33,-28.8 -181.03,89.6 -134.94,166.2 41.7,69.2 175.51,54.3 270.9,134.2 l -1.43,3.6 c -47.61,-1 -148.59,-3.6 -196.55,-7.5 -64,-5.2 -155.59,25.6 -194.86,82.7 -39.26,57 -17.2,109.6 -17.2,109.6" style="fill: rgb(175, 71, 255); fill-opacity: 1; fill-rule: nonzero; stroke: none;" id="path26"></path><path d="m 1501.7,7413.1 c 378.1,231.3 759.76,355.4 1129.28,405.3 108.59,-134.4 241.9,-292.6 241.9,-292.6 l 13.39,315.8 c 1417.97,67.5 2594.96,-880.3 2594.96,-880.3 -820.3,-519.3 -1520.64,-663.5 -2094.64,-618.4 -34.22,110.4 -82.7,275.1 -82.7,275.1 l -100.87,-253.9 c -275.21,42.5 -518.16,127.8 -728.03,232.3 53.44,131.6 109.69,282.2 109.69,282.2 l -305.3,-174.2 c -512.8,312.1 -777.68,708.7 -777.68,708.7" style="fill: rgb(126, 0, 245); fill-opacity: 1; fill-rule: nonzero; stroke: none;" id="path28"></path><path d="m 3386.59,6342.9 c -34.22,110.4 -82.7,275.1 -82.7,275.1 l -100.87,-253.9 c -275.21,42.5 -518.16,127.8 -728.03,232.3 53.44,131.6 109.69,282.2 109.69,282.2 l -305.3,-174.2 c -512.8,312.1 -777.68,708.7 -777.68,708.7 1651.89,194.2 3979.53,-451.8 3979.53,-451.8 C 4660.93,6442 3960.59,6297.8 3386.59,6342.9" style="fill: rgb(50, 18, 79); fill-opacity: 1; fill-rule: nonzero; stroke: none;" id="path30"></path><path d="m 17233.7,5219.5 740.8,12 c 258.1,465.5 447.6,870.4 447.6,870.4 -836.2,194.6 -1251.3,212.8 -1840.1,-12.1 l -383.5,-599.9 -70.7,492.9 c -1459.5,-783.7 -2294.3,-2617.3 -2294.3,-2617.3 0,0 2577,269.2 3123.8,522.1 211.1,97.7 477.5,450.1 725.1,845.9 -197,188.4 -448.7,486 -448.7,486" style="fill: rgb(99, 27, 172); fill-opacity: 1; fill-rule: nonzero; stroke: none;" id="path32"></path><path d="m 18422.1,6101.9 c 0,0 -3310.7,-1385.3 -4588.6,-2736.4 0,0 2577,269.2 3123.8,522.1 211.1,97.7 477.5,450.1 725.1,845.9 -197,188.4 -448.7,486 -448.7,486 l 740.8,12 c 258.1,465.5 447.6,870.4 447.6,870.4" style="fill: rgb(109, 33, 171); fill-opacity: 1; fill-rule: nonzero; stroke: none;" id="path34"></path><path d="m 18312,3877.3 c -444.8,272.1 -893.9,418.2 -1328.6,476.9 C 16855.6,4196 16698.8,4010 16698.8,4010 l -15.8,371.5 c -1668.3,79.4 -3053.1,-1035.7 -3053.1,-1035.7 965.1,-611.1 1789.1,-780.7 2464.4,-727.6 40.3,129.9 97.3,323.6 97.3,323.6 l 118.7,-298.7 c 323.8,50 609.7,150.4 856.6,273.3 -62.9,154.9 -129.1,332 -129.1,332 l 359.2,-205 c 603.4,367.2 915,833.9 915,833.9" style="fill: rgb(175, 71, 255); fill-opacity: 1; fill-rule: nonzero; stroke: none;" id="path36"></path><path d="m 16094.3,2618.2 c 40.3,129.9 97.3,323.6 97.3,323.6 l 118.7,-298.7 c 323.8,50 609.7,150.4 856.6,273.3 -62.9,154.9 -129.1,332 -129.1,332 l 359.2,-205 c 603.4,367.2 915,833.9 915,833.9 -1943.5,228.5 -4682.1,-531.5 -4682.1,-531.5 965.1,-611.1 1789.1,-780.7 2464.4,-727.6" style="fill: rgb(167, 51, 255); fill-opacity: 1; fill-rule: nonzero; stroke: none;" id="path38"></path><path d="M 15814.2,11471.2 10097,12737.4 V 3777.5 l 5717.2,-1206.8 v 8900.5" style="fill: rgb(81, 0, 143); fill-opacity: 1; fill-rule: nonzero; stroke: none;" id="path40"></path><path d="m 15963.8,2572.9 -149.6,-2.2 v 8960.6 l 149.6,2.2 V 2572.9" style="fill: rgb(50, 18, 79); fill-opacity: 1; fill-rule: nonzero; stroke: none;" id="path42"></path><path d="m 10097,12737.4 65.6,49.6 5801.2,-1253.5 -149.6,-62.3 -5717.2,1266.2" style="fill: rgb(123, 37, 193); fill-opacity: 1; fill-rule: nonzero; stroke: none;" id="path44"></path><path d="M 4379.75,11471.2 10097,12737.4 V 3777.5 L 4379.75,2570.7 v 8900.5" style="fill: rgb(81, 0, 143); fill-opacity: 1; fill-rule: nonzero; stroke: none;" id="path46"></path><path d="m 4619.57,11386.5 5081.27,1261.8 c 0,0 266.85,-112.1 396.16,-96.6 L 7682.02,10533.3 c 0,0 -1673.28,-216.8 -1715.88,-144.6 -42.6,72.1 -1346.57,997.8 -1346.57,997.8" style="fill: rgb(246, 229, 255); fill-opacity: 1; fill-rule: nonzero; stroke: none;" id="path48"></path><path d="m 4619.57,2612.9 647.49,-289.7 v 8773.6 l -647.49,289.7 V 2612.9" style="fill: rgb(235, 209, 255); fill-opacity: 1; fill-rule: nonzero; stroke: none;" id="path50"></path><path d="M 10097,3777.5 5267.06,2323.2 v 8774.2 L 10097,12551.7 V 3777.5" style="fill: rgb(218, 179, 255); fill-opacity: 1; fill-rule: nonzero; stroke: none;" id="path52"></path><path d="m 5751.02,9954.9 v 632 l 3862.01,1162.9 v -632 l -2578.78,-776.5 c -100.58,61.8 -204.69,73.2 -267.52,73.2 -36.4,0 -58.95,-3.8 -58.95,-3.8 0,0 2.92,-74.2 6.57,-165.7 l -58.22,-17.5 c -9.03,1.5 -18.14,2.7 -27.32,3.6 -15.43,1.6 -30.71,2.3 -45.82,2.3 -116.19,0 -222.07,-45 -300.97,-118.6 l -42.77,-12.9 c -106.59,50.4 -206.52,97.7 -206.52,97.7 0,0 -78.47,-118.1 -141.77,-202.5 l -139.94,-42.2" style="fill: rgb(204, 168, 235); fill-opacity: 1; fill-rule: nonzero; stroke: none;" id="path54"></path><path d="m 7225.24,10123.4 c -12.86,26.5 -26.79,50.6 -41.54,72.6 v 28.3 l 2429.33,731.5 v -113.4 l -2387.79,-719" style="fill: rgb(204, 168, 235); fill-opacity: 1; fill-rule: nonzero; stroke: none;" id="path56"></path><path d="m 7342.98,9875.3 c -1.21,2.1 -2.41,4.2 -3.6,6.4 -16.86,30 -32.59,60.6 -47.46,91.6 l 2321.11,698.9 v -113.4 L 7342.98,9875.3" style="fill: rgb(204, 168, 235); fill-opacity: 1; fill-rule: nonzero; stroke: none;" id="path58"></path><path d="m 7488.36,9635.5 c -20.06,29.7 -40.63,62.2 -60.77,95.1 l 2185.44,658.1 v -113.4 L 7488.36,9635.5" style="fill: rgb(204, 168, 235); fill-opacity: 1; fill-rule: nonzero; stroke: none;" id="path60"></path><path d="m 7713.42,9419.7 c -37.9,23.9 -75.2,49.7 -111.44,79.9 l 2011.05,605.5 v -113.4 l -1899.61,-572" style="fill: rgb(204, 168, 235); fill-opacity: 1; fill-rule: nonzero; stroke: none;" id="path62"></path><path d="m 8017.37,9227.7 c -37.3,29.8 -75.36,55.4 -113.68,79.1 l 1709.34,514.8 V 9708.1 L 8017.37,9227.7" style="fill: rgb(204, 168, 235); fill-opacity: 1; fill-rule: nonzero; stroke: none;" id="path64"></path><path d="m 8215.2,9003.7 c -12.46,19 -26.45,39.1 -41.87,60.4 -8.26,11.4 -16.59,22.3 -25.01,32.8 L 9613.03,9538 V 9424.6 L 8215.2,9003.7" style="fill: rgb(204, 168, 235); fill-opacity: 1; fill-rule: nonzero; stroke: none;" id="path66"></path><path d="m 8261.4,8734 c 22.92,39.7 29.8,78.3 22.47,120.2 l 1329.16,400.2 V 9141 L 8261.4,8734" style="fill: rgb(204, 168, 235); fill-opacity: 1; fill-rule: nonzero; stroke: none;" id="path68"></path><path d="m 8295.02,8460.6 c -5.85,35.4 -20.12,70.5 -34.03,103.1 l 1352.04,407.2 V 8857.4 L 8295.02,8460.6" style="fill: rgb(204, 168, 235); fill-opacity: 1; fill-rule: nonzero; stroke: none;" id="path70"></path><path d="m 7183.7,7842.4 v 113.4 l 61.02,18.4 c 44.97,-32.9 91.76,-52.3 139.49,-52.3 5.02,0 10.04,0.2 15.08,0.7 33.41,2.8 63.12,6.8 89.68,11.7 l -305.27,-91.9 m 422.59,127.2 c 90.3,42.1 117.24,103.7 163.86,162.8 l 1842.88,554.9 V 8573.9 L 7606.29,7969.6" style="fill: rgb(204, 168, 235); fill-opacity: 1; fill-rule: nonzero; stroke: none;" id="path72"></path><path d="m 7183.7,7558.8 v 113.4 l 2429.33,731.5 V 8290.3 L 7183.7,7558.8" style="fill: rgb(204, 168, 235); fill-opacity: 1; fill-rule: nonzero; stroke: none;" id="path74"></path><path d="m 5751.02,6843.8 v 113.5 L 9613.03,8120.2 V 8006.7 L 5751.02,6843.8" style="fill: rgb(204, 168, 235); fill-opacity: 1; fill-rule: nonzero; stroke: none;" id="path76"></path><path d="m 6006.7,6637.3 -175.3,60.6 1850.62,557.3 V 7141.7 L 6006.7,6637.3" style="fill: rgb(204, 168, 235); fill-opacity: 1; fill-rule: nonzero; stroke: none;" id="path78"></path><path d="m 6445,6485.7 -175.32,60.6 1412.34,425.3 V 6858.2 L 6445,6485.7" style="fill: rgb(204, 168, 235); fill-opacity: 1; fill-rule: nonzero; stroke: none;" id="path80"></path><path d="m 6883.3,6334.1 -175.32,60.6 974.04,293.3 V 6574.6 L 6883.3,6334.1" style="fill: rgb(204, 168, 235); fill-opacity: 1; fill-rule: nonzero; stroke: none;" id="path82"></path><path d="m 7321.59,6182.5 -175.32,60.7 535.75,161.3 V 6291 l -360.43,-108.5" style="fill: rgb(204, 168, 235); fill-opacity: 1; fill-rule: nonzero; stroke: none;" id="path84"></path><path d="m 7682.02,6057.9 -97.45,33.7 97.45,29.3 v -63" style="fill: rgb(204, 168, 235); fill-opacity: 1; fill-rule: nonzero; stroke: none;" id="path86"></path><path d="m 8613.11,4870 c 0.88,14.5 2.18,28.9 3.89,43 v 0 c 3.13,25.9 7.6,51.1 13.17,75.6 l 982.86,296 V 5171.1 L 8613.11,4870" style="fill: rgb(204, 168, 235); fill-opacity: 1; fill-rule: nonzero; stroke: none;" id="path88"></path><path d="m 8650.33,4597.7 c -7.06,20.7 -13.09,41.1 -18.08,61.4 h -0.06 c -3.63,14.7 -6.72,29.3 -9.34,43.7 l 990.18,298.2 v -113.4 l -962.7,-289.9" style="fill: rgb(204, 168, 235); fill-opacity: 1; fill-rule: nonzero; stroke: none;" id="path90"></path><path d="m 8781.86,4353.7 c -23.77,31.8 -44.64,63.3 -62.85,94.5 l 894.02,269.2 V 4604 l -831.17,-250.3" style="fill: rgb(204, 168, 235); fill-opacity: 1; fill-rule: nonzero; stroke: none;" id="path92"></path><path d="m 5751.02,7127.4 v 1840.2 c 43.21,-25.6 85.25,-32.4 125.45,-32.4 22.5,0 44.41,2.2 65.65,4.3 21.24,2.1 41.8,4.2 61.57,4.2 13.89,0 27.37,-1 40.44,-3.9 49.96,-132.2 140.45,-278.7 140.45,-278.7 l 301.89,-6.7 c 0,0 41.49,46.3 83.89,97.6 35.65,-117.6 63.84,-222.9 70.97,-281.7 12.26,-101.2 164.84,-130.2 336.98,-139.8 14.5,-27.9 29.75,-55.8 45.67,-83.3 V 7510.7 L 5751.02,7127.4" style="fill: rgb(204, 168, 235); fill-opacity: 1; fill-rule: nonzero; stroke: none;" id="path94"></path><path d="m 8699.04,5179.5 c 24,48.3 50.34,91 75.41,127.1 l 311.33,90.4 4.75,71.5 v 0 l -703.43,210.9 147.09,83.7 -715.88,247.6 v 1285.5 l 1794.72,540.4 V 5454.7 l -913.99,-275.2" style="fill: rgb(204, 168, 235); fill-opacity: 1; fill-rule: nonzero; stroke: none;" id="path96"></path><path d="m 15574.4,11386.5 -5081.3,1261.8 c 0,0 -266.8,-112.1 -396.1,-96.6 l 2414.9,-2018.4 c 0,0 1673.3,-216.8 1715.9,-144.6 42.6,72.1 1346.6,997.8 1346.6,997.8" style="fill: rgb(250, 246, 254); fill-opacity: 1; fill-rule: nonzero; stroke: none;" id="path98"></path><path d="m 15574.4,2612.9 -647.5,-289.7 v 8773.6 l 647.5,289.7 V 2612.9" style="fill: rgb(204, 167, 241); fill-opacity: 1; fill-rule: nonzero; stroke: none;" id="path100"></path><path d="m 10097,3777.5 4829.9,-1454.3 v 8774.2 L 10097,12551.7 V 3777.5" style="fill: rgb(235, 209, 255); fill-opacity: 1; fill-rule: nonzero; stroke: none;" id="path102"></path><path d="m 4230.14,2572.9 149.61,-2.2 v 8960.6 l -149.61,2.2 V 2572.9" style="fill: rgb(50, 18, 79); fill-opacity: 1; fill-rule: nonzero; stroke: none;" id="path104"></path><path d="m 10097,12737.4 -65.6,49.6 -5801.26,-1253.5 149.61,-62.3 5717.25,1266.2" style="fill: rgb(123, 37, 193); fill-opacity: 1; fill-rule: nonzero; stroke: none;" id="path106"></path><path d="m 10566.1,12699.1 c -183.2,65.2 -329,85.5 -424.1,90.5 -57.8,5.3 -235.07,10 -508.43,-87.3 0,0 16.45,-17.5 49.85,-40.3 v 0 h 0.02 c 48,-32.7 131.09,-76.3 251.03,-94.7 368.03,-77 631.63,131.8 631.63,131.8" style="fill: rgb(50, 18, 79); fill-opacity: 1; fill-rule: nonzero; stroke: none;" id="path108"></path><path d="M 10336.8,4182 14691.7,2870.7 V 10782 l -4354.9,1311.4 V 4182" style="fill: rgb(50, 18, 79); fill-opacity: 1; fill-rule: nonzero; stroke: none;" id="path110"></path><path d="M 10336.8,8084.6 V 4182 l 2319.3,-698.4 c 614.9,686.1 873.3,1664.1 599,2614.5 -375,1299.2 -1619.5,2111.3 -2918.3,1986.5" style="fill: rgb(175, 71, 255); fill-opacity: 1; fill-rule: nonzero; stroke: none;" id="path112"></path><path d="m 10935.8,8076.6 c 229.2,-280.8 406.7,-611.4 513.5,-981.6 324.1,-1122.6 -95.2,-2283.6 -967.1,-2956.8 l 2173.9,-654.6 c 614.9,686.1 873.3,1664.1 599,2614.5 -316.7,1097.1 -1253.5,1846.9 -2319.3,1978.5" style="fill: rgb(167, 51, 255); fill-opacity: 1; fill-rule: nonzero; stroke: none;" id="path114"></path><path d="m 12857.2,6927.5 c 723.7,149.3 1352.2,246.8 1834.5,285.1 v 243 c -569.3,-84.5 -1230,-210.3 -1952.3,-373.3 40.9,-50 80.3,-101.6 117.8,-154.8" style="fill: rgb(118, 0, 209); fill-opacity: 1; fill-rule: nonzero; stroke: none;" id="path116"></path><path d="M 14691.7,6030.9 V 6274 c -903,-438.6 -2324.8,-962.7 -3952,-1432.4 -135.4,-39.1 -269.8,-77.1 -402.9,-114 v -165.4 c 147.8,41.1 296.9,83.3 447,126.6 1503.9,434.1 2862.8,906.6 3907.9,1342.1" style="fill: rgb(118, 0, 209); fill-opacity: 1; fill-rule: nonzero; stroke: none;" id="path118"></path><path d="m 10380.7,8333.4 v 3700.8 l 1301.3,-391.8 c -27,-79.1 -48.1,-159.6 -56.3,-243 -36,-366.8 182,-705.6 266.4,-1064.4 44.1,-187.8 51.5,-384.2 21.4,-574.7 -8.9,-56.2 -21.6,-113.4 -53.1,-160.7 -43.7,-65.5 -117.8,-103.9 -191.8,-130.7 -235.8,-85 -517.9,-88.4 -692.1,-268.5 -140.7,-145.5 -167.4,-364.8 -265.2,-542 -76.6,-138.8 -193.6,-245.4 -330.6,-325" style="fill: rgb(61, 0, 173); fill-opacity: 1; fill-rule: nonzero; stroke: none;" id="path120"></path><path d="m 14513.5,2970.2 -1248.7,376 c -21.6,39.5 -46.3,77.6 -73.9,114 l 21.3,19.1 -93.1,65.4 c -72.7,76.5 -159.3,143.4 -257.2,198.2 321.5,458.7 502.3,1012 502.4,1587 0,62.1 -2.1,124.5 -6.4,187 466.9,167.6 899.8,334.2 1289.9,495.7 V 3178.8 c -53.3,-64.7 -98.5,-134.5 -134.3,-208.6 m -1174.3,2730.1 c -18,132.6 -45.9,265.5 -84.1,397.8 -43.3,150.1 -98.2,293.5 -163.4,429.8 v 0.1 c -0.4,0.7 -0.8,1.6 -1.2,2.4 -0.1,0.3 -0.2,0.4 -0.3,0.6 -0.3,0.8 -0.7,1.5 -1,2.2 -0.2,0.3 -0.3,0.6 -0.5,0.9 -0.3,0.7 -0.6,1.3 -0.9,2 -0.2,0.4 -0.4,0.7 -0.5,1.1 -0.4,0.7 -0.6,1.3 -1,1.9 -0.2,0.4 -0.3,0.8 -0.5,1.2 -0.3,0.6 -0.6,1.3 -0.9,1.8 -0.2,0.5 -0.4,0.8 -0.6,1.3 -0.3,0.5 -0.6,1.2 -0.9,1.8 -0.2,0.4 -0.4,0.8 -0.6,1.3 -0.3,0.5 -0.6,1.2 -0.9,1.7 -0.2,0.5 -0.5,1.1 -0.8,1.6 -0.2,0.5 -0.4,0.9 -0.6,1.4 -0.5,0.9 -1.1,2 -1.5,3 -0.1,0.2 -0.2,0.3 -0.3,0.5 -0.4,0.9 -0.8,1.7 -1.2,2.6 -0.2,0.3 -0.3,0.6 -0.5,0.8 -0.4,0.8 -0.7,1.5 -1.1,2.3 -0.1,0.3 -0.3,0.6 -0.4,0.8 -0.4,0.8 -0.8,1.6 -1.1,2.3 -0.2,0.3 -0.3,0.6 -0.4,0.9 -0.4,0.7 -0.8,1.5 -1.2,2.3 -0.1,0.2 -0.3,0.5 -0.4,0.7 -0.4,0.9 -0.8,1.6 -1.2,2.5 -0.1,0.2 -0.2,0.4 -0.3,0.6 -0.5,0.9 -0.9,1.7 -1.3,2.6 -0.1,0.2 -0.2,0.3 -0.2,0.5 -0.5,1 -1,1.9 -1.5,3 h -0.1 c -61.9,123.3 -132.4,240.4 -210.5,350.9 701.8,144.8 1314.2,240.9 1790.5,281.5 v -956.2 c -362.7,-174.1 -805.3,-361.1 -1308.6,-552.5 m -599.8,1382.1 c -251.3,306.9 -564.6,554 -915.1,727.5 34.4,55.9 71.7,109 114.3,156.4 407.3,453.2 1182.1,281.1 1478.2,842.4 88.7,168.1 120,385.3 250.3,509.7 95.3,91 224.3,112 346.5,122.4 120.3,10.3 240.8,13.8 361.4,13.8 90.9,0 181.8,-2 272.8,-4.7 V 7449 c -559.3,-84.4 -1204.6,-207.9 -1908.4,-366.7" style="fill: rgb(61, 0, 173); fill-opacity: 1; fill-rule: nonzero; stroke: none;" id="path122"></path><path d="m 11095.6,4946.1 c -68.2,106.4 -135.8,213.3 -201,322 -136.7,227.7 -269.1,491 -236.8,767.7 38.1,326.5 286.4,549.2 492.6,770.6 100.2,107.6 194.4,223 281.9,345.2 5.9,-18.8 11.6,-37.6 17,-56.6 213.2,-738.5 104.7,-1493.6 -242.7,-2115.5 -36.8,-11.1 -73.9,-22.3 -111,-33.4 m 2268.7,383.8 c 0,62.1 -2.1,124.5 -6.4,187 v 0 c 4.3,-62.5 6.4,-124.9 6.4,-187 m -25.1,370.4 c -18,132.6 -45.9,265.5 -84.1,397.8 -43.3,150 -98.2,293.5 -163.4,429.8 65.2,-136.3 120.1,-279.7 163.4,-429.8 38.2,-132.3 66.1,-265.2 84.1,-397.8 v 0 m -247.5,827.7 c -0.4,0.7 -0.8,1.6 -1.2,2.4 0.4,-0.8 0.8,-1.7 1.2,-2.4 m -1.5,3 c -0.3,0.8 -0.7,1.5 -1,2.2 0.3,-0.7 0.7,-1.4 1,-2.2 m -1.5,3.1 c -0.3,0.7 -0.6,1.4 -0.9,2 0.3,-0.7 0.6,-1.3 0.9,-2 m -1.4,3.1 c -0.3,0.6 -0.7,1.3 -1,1.9 0.4,-0.6 0.6,-1.2 1,-1.9 m -1.5,3.1 c -0.3,0.6 -0.6,1.2 -0.9,1.8 0.3,-0.5 0.6,-1.2 0.9,-1.8 m -1.5,3.1 c -0.3,0.5 -0.6,1.2 -0.9,1.8 0.3,-0.6 0.6,-1.3 0.9,-1.8 m -1.5,3.1 c -0.3,0.5 -0.6,1.1 -0.9,1.7 0.3,-0.5 0.6,-1.2 0.9,-1.7 m -1.7,3.3 c -0.2,0.5 -0.4,0.9 -0.6,1.4 0.2,-0.5 0.4,-0.9 0.6,-1.4 m -2.1,4.4 c -0.1,0.2 -0.2,0.3 -0.3,0.5 0.1,-0.2 0.2,-0.3 0.3,-0.5 m -1.5,3.1 c -0.2,0.3 -0.3,0.5 -0.5,0.8 0.2,-0.2 0.3,-0.5 0.5,-0.8 m -1.6,3.1 c -0.1,0.3 -0.3,0.6 -0.4,0.8 0.1,-0.2 0.3,-0.5 0.4,-0.8 m -1.5,3.1 c -0.2,0.3 -0.3,0.6 -0.4,0.9 0.1,-0.3 0.2,-0.6 0.4,-0.9 m -1.6,3.2 c -0.1,0.2 -0.3,0.5 -0.4,0.7 0.1,-0.2 0.3,-0.5 0.4,-0.7 m -1.6,3.2 c -0.1,0.1 -0.2,0.4 -0.3,0.6 0.1,-0.2 0.2,-0.4 0.3,-0.6 m -1.6,3.2 c -0.1,0.2 -0.2,0.3 -0.2,0.5 0,-0.2 0.1,-0.3 0.2,-0.5 m -1.7,3.5 h -0.1 0.1" style="fill: rgb(186, 131, 231); fill-opacity: 1; fill-rule: nonzero; stroke: none;" id="path124"></path><path d="m 12861.9,3742.9 c -28.5,16 -58,30.9 -88.5,44.7 l -126.7,89.1 -32.8,-29.4 c -91.8,27.6 -189.6,45.8 -292.3,53.3 -35.5,2.6 -70.8,3.9 -106,3.9 -160.8,0 -316.9,-26.8 -461.7,-75.8 -18.3,38.8 -36.9,77.4 -56,115.6 -151.1,302.9 -331.7,582.6 -512.4,862.4 776.6,231.6 1509,472 2172.4,710.2 4.3,-62.5 6.4,-124.9 6.4,-187 -0.1,-575 -180.9,-1128.3 -502.4,-1587 m -1655.3,1236.6 c 347.4,621.9 455.9,1377 242.7,2115.5 -5.4,19 -11.1,37.8 -17,56.6 87.3,121.8 167.9,250.2 241.1,384.4 49.9,91.3 96.9,186.2 150.9,273.9 350.5,-173.5 663.8,-420.6 915.1,-727.5 0,-0.1 0,-0.1 0,-0.1 40.9,-50 80.3,-101.6 117.8,-154.8 v 0 c 78.2,-110.5 148.7,-227.6 210.6,-350.9 h 0.1 c 0.5,-1.1 1,-2 1.5,-3 0,-0.2 0.1,-0.3 0.2,-0.5 0.4,-0.9 0.8,-1.7 1.3,-2.6 0.1,-0.2 0.2,-0.5 0.3,-0.6 0.4,-0.9 0.8,-1.6 1.2,-2.5 0.1,-0.2 0.3,-0.5 0.4,-0.7 0.4,-0.8 0.8,-1.6 1.2,-2.3 0.1,-0.3 0.2,-0.6 0.4,-0.9 0.3,-0.7 0.7,-1.5 1.1,-2.3 0.1,-0.2 0.3,-0.5 0.4,-0.8 0.4,-0.8 0.7,-1.5 1.1,-2.3 0.2,-0.3 0.3,-0.5 0.5,-0.8 0.4,-0.9 0.8,-1.7 1.2,-2.6 0.1,-0.2 0.2,-0.3 0.3,-0.5 0.4,-1 1,-2.1 1.5,-3 0.2,-0.5 0.4,-0.9 0.6,-1.4 0.3,-0.5 0.6,-1.1 0.8,-1.6 0.3,-0.6 0.6,-1.2 0.9,-1.7 0.2,-0.5 0.4,-0.9 0.6,-1.3 0.3,-0.6 0.6,-1.3 0.9,-1.8 0.2,-0.5 0.4,-0.8 0.6,-1.3 0.3,-0.6 0.6,-1.2 0.9,-1.8 0.2,-0.4 0.3,-0.8 0.5,-1.2 0.3,-0.6 0.7,-1.3 1,-1.9 0.1,-0.4 0.3,-0.7 0.5,-1.1 0.3,-0.6 0.6,-1.3 0.9,-2 0.2,-0.3 0.3,-0.6 0.5,-0.9 0.3,-0.7 0.7,-1.4 1,-2.2 0.1,-0.2 0.2,-0.3 0.3,-0.6 0.4,-0.8 0.8,-1.7 1.2,-2.4 v -0.1 c 65.2,-136.3 120.1,-279.8 163.4,-429.8 38.2,-132.3 66.1,-265.2 84.1,-397.8 -628.7,-239 -1351.9,-484.8 -2132.6,-720.8" style="fill: rgb(173, 114, 233); fill-opacity: 1; fill-rule: nonzero; stroke: none;" id="path126"></path><path d="m 12857.2,6927.5 c -37.5,53.2 -76.9,104.8 -117.8,154.8 v 0 c 703.8,158.8 1349.1,282.3 1908.4,366.7 v -240 c -476.3,-40.6 -1088.7,-136.7 -1790.6,-281.5 v 0" style="fill: rgb(143, 54, 217); fill-opacity: 1; fill-rule: nonzero; stroke: none;" id="path128"></path><path d="m 11185.5,4806.7 c -30,46.4 -60,92.9 -89.9,139.4 37.1,11.1 74.2,22.3 111,33.4 780.7,236 1503.9,481.8 2132.6,720.8 v 0 c 503.3,191.4 945.9,378.4 1308.6,552.5 v -240.2 c -390.1,-161.5 -823,-328.1 -1289.9,-495.7 v 0 c -663.4,-238.2 -1395.8,-478.6 -2172.4,-710.2" style="fill: rgb(143, 54, 217); fill-opacity: 1; fill-rule: nonzero; stroke: none;" id="path130"></path><path d="m 13375,9900.9 c 51.4,0 51.4,79.9 0,79.9 -51.4,0 -51.5,-79.9 0,-79.9" style="fill: rgb(235, 209, 255); fill-opacity: 1; fill-rule: nonzero; stroke: none;" id="path132"></path><path d="m 11017.7,8450.2 c 36,0 36,55.9 0,55.9 -36,0 -36,-55.9 0,-55.9" style="fill: rgb(235, 209, 255); fill-opacity: 1; fill-rule: nonzero; stroke: none;" id="path134"></path><path d="m 10662.7,9422.1 c 46.2,0 46.3,71.9 0,71.9 -46.3,0 -46.4,-71.9 0,-71.9" style="fill: rgb(235, 209, 255); fill-opacity: 1; fill-rule: nonzero; stroke: none;" id="path136"></path><path d="m 13928.8,7967.9 c 71.9,0 72,111.8 0,111.8 -72,0 -72.1,-111.8 0,-111.8" style="fill: rgb(235, 209, 255); fill-opacity: 1; fill-rule: nonzero; stroke: none;" id="path138"></path><path d="m 11273.3,10781.3 c 51.4,0 51.5,79.9 0,79.9 -51.4,0 -51.5,-79.9 0,-79.9" style="fill: rgb(235, 209, 255); fill-opacity: 1; fill-rule: nonzero; stroke: none;" id="path140"></path><path d="m 12920.5,10596.7 c 51.4,0 51.5,79.9 0,79.9 -51.3,0 -51.4,-79.9 0,-79.9" style="fill: rgb(235, 209, 255); fill-opacity: 1; fill-rule: nonzero; stroke: none;" id="path142"></path><path d="m 13985.6,8793.3 c 51.4,0 51.5,79.8 0,79.8 -51.4,0 -51.5,-79.8 0,-79.8" style="fill: rgb(235, 209, 255); fill-opacity: 1; fill-rule: nonzero; stroke: none;" id="path144"></path><path d="m 12551.3,8764.9 c 51.4,0 51.5,79.8 0,79.8 -51.4,0 -51.4,-79.8 0,-79.8" style="fill: rgb(235, 209, 255); fill-opacity: 1; fill-rule: nonzero; stroke: none;" id="path146"></path><path d="m 14482.6,10596.7 c 51.4,0 51.5,79.9 0,79.9 -51.4,0 -51.5,-79.9 0,-79.9" style="fill: rgb(235, 209, 255); fill-opacity: 1; fill-rule: nonzero; stroke: none;" id="path148"></path><path d="m 11344.3,11020.5 c 36,0 36,55.9 0,55.9 -36,0 -36,-55.9 0,-55.9" style="fill: rgb(235, 209, 255); fill-opacity: 1; fill-rule: nonzero; stroke: none;" id="path150"></path><path d="m 12920.5,7448.2 c 46.3,0 46.4,71.9 0,71.9 -46.2,0 -46.3,-71.9 0,-71.9" style="fill: rgb(235, 209, 255); fill-opacity: 1; fill-rule: nonzero; stroke: none;" id="path152"></path><path d="m 13872,4693.3 c 46.2,0 46.3,71.9 0,71.9 -46.3,0 -46.4,-71.9 0,-71.9" style="fill: rgb(235, 209, 255); fill-opacity: 1; fill-rule: nonzero; stroke: none;" id="path154"></path><path d="m 14113.4,4431.5 c 36,0 36,55.9 0,55.9 -36,0 -36.1,-55.9 0,-55.9" style="fill: rgb(235, 209, 255); fill-opacity: 1; fill-rule: nonzero; stroke: none;" id="path156"></path><path d="m 14482.6,5106.9 c 25.7,0 25.7,40 0,40 -25.7,0 -25.7,-40 0,-40" style="fill: rgb(235, 209, 255); fill-opacity: 1; fill-rule: nonzero; stroke: none;" id="path158"></path><path d="m 14326.4,8024.2 c 36,0 36,55.9 0,55.9 -36,0 -36,-55.9 0,-55.9" style="fill: rgb(235, 209, 255); fill-opacity: 1; fill-rule: nonzero; stroke: none;" id="path160"></path><path d="m 10776.3,11051.1 c 51.4,0 51.5,79.9 0,79.9 -51.4,0 -51.5,-79.9 0,-79.9" style="fill: rgb(235, 209, 255); fill-opacity: 1; fill-rule: nonzero; stroke: none;" id="path162"></path><path d="m 10506.5,8563.8 c 36,0 36,55.9 0,55.9 -36,0 -36.1,-55.9 0,-55.9" style="fill: rgb(235, 209, 255); fill-opacity: 1; fill-rule: nonzero; stroke: none;" id="path164"></path><path d="m 12693.3,8904.6 c 36,0 36.1,55.9 0,55.9 -35.9,0 -36,-55.9 0,-55.9" style="fill: rgb(235, 209, 255); fill-opacity: 1; fill-rule: nonzero; stroke: none;" id="path166"></path><path d="m 12224.7,9188.6 c 36,0 36.1,56 0,56 -35.9,0 -36,-56 0,-56" style="fill: rgb(235, 209, 255); fill-opacity: 1; fill-rule: nonzero; stroke: none;" id="path168"></path><path d="m 13829.4,9856.1 c 36,0 36,55.9 0,55.9 -36,0 -36.1,-55.9 0,-55.9" style="fill: rgb(235, 209, 255); fill-opacity: 1; fill-rule: nonzero; stroke: none;" id="path170"></path><path d="m 13815.2,6334.4 c 36,0 36,55.9 0,55.9 -36,0 -36.1,-55.9 0,-55.9" style="fill: rgb(235, 209, 255); fill-opacity: 1; fill-rule: nonzero; stroke: none;" id="path172"></path><path d="m 14042.4,6164 c 36,0 36,55.9 0,55.9 -36,0 -36.1,-55.9 0,-55.9" style="fill: rgb(235, 209, 255); fill-opacity: 1; fill-rule: nonzero; stroke: none;" id="path174"></path><path d="m 13474.4,4303.7 c 35.9,0 36,55.9 0,55.9 -36,0 -36.1,-55.9 0,-55.9" style="fill: rgb(235, 209, 255); fill-opacity: 1; fill-rule: nonzero; stroke: none;" id="path176"></path><path d="m 12675.6,10068.6 c 0,0 -16.2,-169.4 -142.3,-143.6 126.1,-50 142.3,-229.1 142.3,-229.1 0,0 16.2,169.4 142.3,143.6 -126.1,49.9 -142.3,229.1 -142.3,229.1" style="fill: rgb(235, 209, 255); fill-opacity: 1; fill-rule: nonzero; stroke: none;" id="path178"></path><path d="m 13928.8,3871.3 c 0,0 -16.2,-169.5 -142.3,-143.6 126.1,-50 142.3,-229.2 142.3,-229.2 0,0 16.2,169.5 142.3,143.7 -126.1,49.9 -142.3,229.1 -142.3,229.1" style="fill: rgb(235, 209, 255); fill-opacity: 1; fill-rule: nonzero; stroke: none;" id="path180"></path><path d="m 12514.2,11256.6 c 0,0 -12.9,-135 -113.3,-114.4 100.4,-39.8 113.3,-182.5 113.3,-182.5 0,0 13,135 113.4,114.4 -100.4,39.8 -113.4,182.5 -113.4,182.5" style="fill: rgb(235, 209, 255); fill-opacity: 1; fill-rule: nonzero; stroke: none;" id="path182"></path><path d="m 11134.2,10068.6 c 0,0 -11.1,-116.2 -97.5,-98.5 86.4,-34.2 97.5,-157.1 97.5,-157.1 0,0 11.1,116.2 97.6,98.5 -86.5,34.3 -97.6,157.1 -97.6,157.1" style="fill: rgb(235, 209, 255); fill-opacity: 1; fill-rule: nonzero; stroke: none;" id="path184"></path><path d="m 14228.8,6927.5 c 0,0 -11.1,-116.2 -97.5,-98.5 86.4,-34.3 97.5,-157.1 97.5,-157.1 0,0 11.1,116.2 97.6,98.5 -86.5,34.2 -97.6,157.1 -97.6,157.1" style="fill: rgb(235, 209, 255); fill-opacity: 1; fill-rule: nonzero; stroke: none;" id="path186"></path><path d="m 13774.4,10785.7 c 0,0 -8,-83.9 -70.5,-71.1 62.5,-24.7 70.5,-113.5 70.5,-113.5 0,0 8,84 70.5,71.2 -62.5,24.7 -70.5,113.4 -70.5,113.4" style="fill: rgb(235, 209, 255); fill-opacity: 1; fill-rule: nonzero; stroke: none;" id="path188"></path><path d="m 14326.4,9245 c 0,0 -8,-83.9 -70.5,-71.1 62.5,-24.8 70.5,-113.5 70.5,-113.5 0,0 8,83.9 70.5,71.1 -62.5,24.8 -70.5,113.5 -70.5,113.5" style="fill: rgb(235, 209, 255); fill-opacity: 1; fill-rule: nonzero; stroke: none;" id="path190"></path><path d="m 13272.4,9245 c 0,0 -8,-83.9 -70.4,-71.1 62.4,-24.8 70.4,-113.5 70.4,-113.5 0,0 8,83.9 70.5,71.1 -62.5,24.8 -70.5,113.5 -70.5,113.5" style="fill: rgb(235, 209, 255); fill-opacity: 1; fill-rule: nonzero; stroke: none;" id="path192"></path><path d="m 11134.2,11751.9 c 0,0 -8,-84 -70.4,-71.2 62.4,-24.7 70.4,-113.4 70.4,-113.4 0,0 8,83.9 70.5,71.1 -62.5,24.7 -70.5,113.5 -70.5,113.5" style="fill: rgb(235, 209, 255); fill-opacity: 1; fill-rule: nonzero; stroke: none;" id="path194"></path><path d="m 11753,8303.5 c 0,0 -6.9,-71.4 -60,-60.5 53.1,-21 60,-96.5 60,-96.5 0,0 6.8,71.4 59.9,60.5 -53.1,21 -59.9,96.5 -59.9,96.5" style="fill: rgb(235, 209, 255); fill-opacity: 1; fill-rule: nonzero; stroke: none;" id="path196"></path><path d="m 10380.7,4214.7 4267.1,-1284.9 v 7819.6 l -4267.1,1284.8 V 4214.7 m 4354.9,-1403.1 -4442.7,1337.7 v 8003.1 l 4442.7,-1337.7 V 2811.6" style="fill: rgb(50, 18, 79); fill-opacity: 1; fill-rule: nonzero; stroke: none;" id="path198"></path><path d="M 5655.6,1089.2 1803.06,2439.7 4854.35,4123 8794.94,2714.1 5832.56,1103.4 c -54.33,-29.5 -118.61,-34.7 -176.96,-14.2" style="fill: rgb(153, 20, 255); fill-opacity: 1; fill-rule: nonzero; stroke: none;" id="path200"></path><path d="m 2102.67,3902.3 c 0,0 579.51,-670.2 -90.67,-1403.5 L 5641.74,1134.9 c 89.72,-33.8 190.83,-12.8 259.7,53.9 l 131.64,127.4 c 0,0 457.3,1253.6 457.3,1285.1 0,31.6 -914.6,772.7 -914.6,772.7 0,0 -1505.94,181.4 -1545.35,181.4 -39.43,0 -1927.76,346.9 -1927.76,346.9" style="fill: rgb(235, 209, 255); fill-opacity: 1; fill-rule: nonzero; stroke: none;" id="path202"></path><path d="m 6023.76,1482.3 c -70.47,0.1 -2671.4,945.6 -2671.4,945.6 0,0 2672.84,-883.1 2696.49,-883.1 0,0 -15.77,-38.4 -23.65,-62.1 -0.1,-0.3 -0.58,-0.4 -1.44,-0.4" style="fill: rgb(223, 168, 255); fill-opacity: 1; fill-rule: nonzero; stroke: none;" id="path204"></path><path d="M 1897.67,3937.8 V 3855 L 5729.53,2542.2 c 0,0 236.53,-295.7 212.88,-697.8 -23.66,-402.1 -110.76,-719.8 -236.84,-724.2 0,0 79.66,-6.5 119.82,18.3 40.15,24.9 133.77,108.7 133.77,108.7 0,0 158.68,715.5 166.56,733.2 7.89,17.8 -82.79,601.2 -143.89,644.6 -61.1,43.4 -9.85,112.4 -299.61,165.6 -289.75,53.2 -2572.31,1078.2 -2627.5,1064.4 -55.19,-13.8 -528.26,7.9 -553.89,0 -25.62,-7.9 -603.16,82.8 -603.16,82.8" style="fill: rgb(153, 20, 255); fill-opacity: 1; fill-rule: nonzero; stroke: none;" id="path206"></path><path d="m 5788.66,2577.7 c 0,0 487.85,-828 0,-1492.3 l 3248.41,1760.4 c 0,0 382.39,784.5 -110.39,1277.2 L 5788.66,2577.7" style="fill: rgb(153, 20, 255); fill-opacity: 1; fill-rule: nonzero; stroke: none;" id="path208"></path><path d="M 5788.66,2577.7 1897.67,3937.8 5410.2,5132.3 8926.68,4123 5788.66,2577.7" style="fill: rgb(152, 92, 255); fill-opacity: 1; fill-rule: nonzero; stroke: none;" id="path210"></path><path d="m 2335.09,3231.6 v 0 c 0.41,21.4 0.13,42.5 -0.86,63.2 v 0 c 1.01,-20.7 1.34,-41.8 0.93,-63.3" style="fill: rgb(235, 209, 255); fill-opacity: 1; fill-rule: nonzero; stroke: none;" id="path212"></path><path d="m 5165.79,2309.6 -2830.7,922 c 0.48,21.4 0.15,42.5 -0.84,63.2 l 2831.54,-985.2" style="fill: rgb(223, 168, 255); fill-opacity: 1; fill-rule: nonzero; stroke: none;" id="path214"></path><path d="m 2273.93,2913.1 h -0.13 c 11.02,29.7 20.45,59 28.28,87.9 v 0 c -7.76,-28.9 -17.13,-58.3 -28.15,-87.9" style="fill: rgb(235, 209, 255); fill-opacity: 1; fill-rule: nonzero; stroke: none;" id="path216"></path><path d="m 4351.71,2234.7 -2077.78,678.4 c 11.02,29.6 20.39,59 28.21,87.9 l 2049.57,-766.3" style="fill: rgb(223, 168, 255); fill-opacity: 1; fill-rule: nonzero; stroke: none;" id="path218"></path><path d="M 5168.75,3007.1 9098.98,4174.1 6144.52,5628.6 2122.88,4411.2 4992.61,3019.4 c 52.62,-25.5 116.61,-30 176.14,-12.3" style="fill: rgb(99, 27, 172); fill-opacity: 1; fill-rule: nonzero; stroke: none;" id="path220"></path><path d="m 8883.5,5437.9 c 0,0 -618.06,-579.1 9.94,-1212.7 L 5185.23,3046.5 c -91.66,-29.1 -191.56,-11 -256.6,46.6 l -124.3,110.1 c 0,0 -385.19,1083.3 -383.37,1110.5 1.81,27.3 959.04,667.7 959.04,667.7 0,0 1516.37,156.7 1555.79,156.7 39.43,0 1947.71,299.8 1947.71,299.8" style="fill: rgb(235, 209, 255); fill-opacity: 1; fill-rule: nonzero; stroke: none;" id="path222"></path><path d="m 4943.29,3377 c -2.65,19.2 -5.01,38.9 -7.08,59.2 552.1,150.3 2612.78,727.6 2612.78,727.6 0,0 -2076.62,-638.9 -2605.7,-786.8" style="fill: rgb(223, 168, 255); fill-opacity: 1; fill-rule: nonzero; stroke: none;" id="path224"></path><path d="M 9090.53,5468.5 9085.78,5397 5178.4,4262.6 c 0,0 -253.54,-255.5 -253.01,-602.9 0.52,-347.5 69.34,-622 195.17,-625.8 0,0 -80.04,-5.7 -118.76,15.8 -38.72,21.5 -127.53,93.9 -127.53,93.9 0,0 -117.51,618.3 -124.38,633.6 -6.86,15.3 117.38,519.5 180.97,557 63.6,37.4 16.32,97 309.14,143 292.81,46 2634.33,931.7 2688.73,919.8 29.66,-6.5 184.27,-3.9 322.78,-1.3 115.42,2.2 219.66,4.4 231.1,1.3 25.17,-6.8 607.92,71.5 607.92,71.5" style="fill: rgb(99, 27, 172); fill-opacity: 1; fill-rule: nonzero; stroke: none;" id="path226"></path><path d="m 5121.31,4293.3 c 0,0 -535.48,-715.5 -85.84,-1289.5 L 1888.33,4524.9 c 0,0 -337.27,677.9 183.86,1103.7 L 5121.31,4293.3" style="fill: rgb(99, 27, 172); fill-opacity: 1; fill-rule: nonzero; stroke: none;" id="path228"></path><path d="M 5121.31,4293.3 9090.53,5468.5 5646.72,6500.7 2072.19,5628.6 5121.31,4293.3" style="fill: rgb(109, 33, 171); fill-opacity: 1; fill-rule: nonzero; stroke: none;" id="path230"></path><path d="m 8612.43,4858.3 c 0.17,3.9 0.38,7.8 0.62,11.7 h 0.06 c -0.23,-3.9 -0.44,-7.8 -0.61,-11.7 v 0" style="fill: rgb(200, 151, 247); fill-opacity: 1; fill-rule: nonzero; stroke: none;" id="path232"></path><path d="m 8613.05,4870 c 0.89,14.5 2.21,28.8 3.93,43 h 0.02 c -1.71,-14.1 -3.01,-28.5 -3.89,-43 h -0.06" style="fill: rgb(188, 117, 255); fill-opacity: 1; fill-rule: nonzero; stroke: none;" id="path234"></path><path d="M 5728.76,4061.7 8617,4913 c -1.74,-14.2 -3.06,-28.5 -3.95,-43 -0.24,-3.9 -0.45,-7.8 -0.62,-11.7 L 5728.76,4061.7" style="fill: rgb(223, 168, 255); fill-opacity: 1; fill-rule: nonzero; stroke: none;" id="path236"></path><path d="m 8655.34,4583.1 c -1.77,4.8 -3.49,9.7 -5.13,14.5 l 0.12,0.1 c 1.65,-4.9 3.37,-9.7 5.13,-14.6 h -0.12" style="fill: rgb(200, 151, 247); fill-opacity: 1; fill-rule: nonzero; stroke: none;" id="path238"></path><path d="m 8650.21,4597.6 c -7.05,20.7 -13.03,41.2 -18.02,61.5 h 0.06 c 4.99,-20.3 11.02,-40.7 18.08,-61.4 l -0.12,-0.1" style="fill: rgb(188, 117, 255); fill-opacity: 1; fill-rule: nonzero; stroke: none;" id="path240"></path><path d="m 6538.52,3996.9 2093.67,662.2 c 4.99,-20.3 10.97,-40.8 18.02,-61.5 1.64,-4.8 3.36,-9.7 5.13,-14.5 L 6538.52,3996.9" style="fill: rgb(223, 168, 255); fill-opacity: 1; fill-rule: nonzero; stroke: none;" id="path242"></path><path d="m 2719.81,4123 -234.39,112.4 c -0.33,0.4 -0.68,0.9 -1.01,1.4 l 235.4,-113.7 c 0,-0.1 0,-0.1 0,-0.1" style="fill: rgb(101, 0, 179); fill-opacity: 1; fill-rule: nonzero; stroke: none;" id="path244"></path><path d="m 2719.81,4123.1 -235.4,113.7 c -412.11,608.1 116.19,1159.7 116.7,1160.2 l 265.14,-116.1 C 2419.35,4852.4 2718.53,4126.2 2719.81,4123.1" style="fill: rgb(101, 0, 179); fill-opacity: 1; fill-rule: nonzero; stroke: none;" id="path246"></path><path d="M 2866.25,5280.9 2601.11,5397 v 0 l 265.14,-116.1 v 0" style="fill: rgb(101, 30, 159); fill-opacity: 1; fill-rule: nonzero; stroke: none;" id="path248"></path><path d="M 6073.7,4432.6 2799.97,5543.5 5183.56,6922 8534.19,5763.1 6218.27,4444.1 c -42.46,-24.2 -94.99,-28.4 -144.57,-11.5" style="fill: rgb(167, 51, 255); fill-opacity: 1; fill-rule: nonzero; stroke: none;" id="path250"></path><path d="m 2935.4,6743 c 0,0 527.94,-550.2 32.05,-1151.2 L 6058.82,4470.1 c 76.42,-27.8 158.05,-10.6 209.67,44 l 98.66,104.4 c 0,0 281.11,1028 278.71,1053.9 -2.39,25.9 -811.55,634.6 -811.55,634.6 0,0 -1253.34,149.9 -1285.79,149.9 C 4516.08,6457 2935.4,6743 2935.4,6743" style="fill: rgb(235, 209, 255); fill-opacity: 1; fill-rule: nonzero; stroke: none;" id="path252"></path><path d="m 6346.86,4754.8 c -58.01,0.1 -2270.75,777.7 -2270.75,777.7 0,0 2267.17,-726.4 2286.64,-726.4 0,0 -10.05,-31.6 -14.75,-51 -0.05,-0.2 -0.43,-0.3 -1.14,-0.3" style="fill: rgb(223, 168, 255); fill-opacity: 1; fill-rule: nonzero; stroke: none;" id="path254"></path><path d="m 2763.97,6772.3 6.29,-67.9 3253.83,-1079.9 c 0,0 217.17,-242.7 228.27,-572.6 11.1,-329.8 -36.44,-590.4 -139.89,-593.9 0,0 66.07,-5.4 97.23,14.9 31.16,20.4 101.85,89.1 101.85,89.1 0,0 76.22,586.8 81.36,601.3 5.14,14.6 -113.85,493.3 -167.44,528.9 -53.59,35.6 -16.65,92.2 -259.2,136.1 -242.54,43.8 -2199.25,886.4 -2243.63,875.2 -44.38,-11.3 -435.42,6.8 -455.91,0.4 -20.49,-6.5 -502.76,68.4 -502.76,68.4" style="fill: rgb(167, 51, 255); fill-opacity: 1; fill-rule: nonzero; stroke: none;" id="path256"></path><path d="m 6070.07,5653.5 c 0,0 464.5,-679.5 113.44,-1224.1 l 2539.97,1441.5 c 0,0 255.12,643.3 -187.95,1047.9 L 6070.07,5653.5" style="fill: rgb(167, 51, 255); fill-opacity: 1; fill-rule: nonzero; stroke: none;" id="path258"></path><path d="M 6070.07,5653.5 2763.97,6772.3 5564.37,7749.4 8535.53,6918.8 6070.07,5653.5" style="fill: rgb(175, 71, 255); fill-opacity: 1; fill-rule: nonzero; stroke: none;" id="path260"></path><path d="m 3177.69,6192.6 v 0 c -1.29,17.6 -3.13,34.9 -5.52,51.9 v 0 c 2.41,-17 4.29,-34.3 5.58,-51.9" style="fill: rgb(235, 209, 255); fill-opacity: 1; fill-rule: nonzero; stroke: none;" id="path262"></path><path d="m 5577.76,5434.1 -2400.07,758.5 c -1.23,17.6 -3.11,34.9 -5.5,51.9 l 2405.57,-810.4" style="fill: rgb(223, 168, 255); fill-opacity: 1; fill-rule: nonzero; stroke: none;" id="path264"></path><path d="m 3151.57,5931.4 h -0.11 c 6.82,24.3 12.35,48.4 16.58,72.1 h 0.06 c -4.24,-23.7 -9.72,-47.8 -16.53,-72.1" style="fill: rgb(235, 209, 255); fill-opacity: 1; fill-rule: nonzero; stroke: none;" id="path266"></path><path d="m 4913.38,5373.3 -1761.81,558.1 c 6.81,24.3 12.29,48.4 16.53,72.1 l 1745.28,-630.2" style="fill: rgb(223, 168, 255); fill-opacity: 1; fill-rule: nonzero; stroke: none;" id="path268"></path><path d="M 5786.64,5986.5 3873,6657.7 l 378.26,164.7 2027.28,-601 -491.9,-234.9" style="fill: rgb(167, 51, 255); fill-opacity: 1; fill-rule: nonzero; stroke: none;" id="path270"></path><path d="m 15250.6,11241.6 -4862.4,1362.7 c 0,0 0.1,0 0.1,0 l 4949.6,-1323.6 -87.3,-39.1" style="fill: rgb(201, 143, 255); fill-opacity: 1; fill-rule: nonzero; stroke: none;" id="path272"></path><path d="m 15250.6,3578.7 v 7662.9 l 87.3,39.1 65.8,-7661.6 c -52.1,-10.8 -103.3,-24.3 -153.1,-40.4" style="fill: rgb(163, 96, 230); fill-opacity: 1; fill-rule: nonzero; stroke: none;" id="path274"></path><path d="m 10388.2,12604.3 -7.5,2.1 7.6,-2.1 c 0,0 -0.1,0 -0.1,0" style="fill: rgb(46, 14, 73); fill-opacity: 1; fill-rule: nonzero; stroke: none;" id="path276"></path><path d="m 10183.6,1469.6 c 46.1,-13.7 98.7,5.9 119.8,44.7 77.9,142.7 281.9,480.4 612.2,777.3 13.7,12.3 78.5,55.7 337.5,96.8 183.6,29.1 432.9,52.3 740.9,68.8 522.8,28.1 1219.6,37.6 2071.1,28.3 1451.8,-15.9 2867,-82 2881.1,-82.6 l 19.7,157.8 c -14.2,0.7 -1433.3,66.9 -2889.1,82.8 -856.2,9.4 -1557.9,-0.2 -2085.4,-28.5 -911.1,-48.9 -1124.9,-142.4 -1209.4,-218.3 -352.8,-317.2 -565.5,-669.1 -648.6,-822.4 -22.7,-42.1 0.2,-89.9 50.2,-104.7" style="fill: rgb(153, 20, 255); fill-opacity: 1; fill-rule: nonzero; stroke: none;" id="path278"></path><path d="m 17111.8,976.5 c -49.3,-6.699 -94.4,20.102 -102.7,61 -30.4,150.7 -121.9,510.1 -349.6,848.1 -9.4,14 -58.9,65.8 -298.7,143.6 -170,55.1 -406,114 -701.4,174.9 -501.6,103.4 -1179,214 -2013.5,328.6 -1422.8,195.6 -2825.8,336.9 -2839.8,338.3 l 31.2,157 c 14,-1.5 1420.9,-143.1 2847.6,-339.2 839.1,-115.3 1521.2,-226.7 2027.4,-331 874,-180.2 1053,-302.6 1111.2,-389 243.2,-361 338.6,-735.6 370.8,-897.4 8.8,-44.4 -28.9,-87.798 -82.5,-94.9 v 0" style="fill: rgb(117, 32, 203); fill-opacity: 1; fill-rule: nonzero; stroke: none;" id="path280"></path><path d="m 11527.2,1966.7 -31.9,24.8 c 12.8,-6.4 25.7,-12.6 38.8,-18.7 l -6.9,-6.1 m -371.8,289.5 -113.5,88.4 c 12.2,3.4 25.6,6.9 40.2,10.4 22.1,-34.2 46.6,-67.2 73.3,-98.8" style="fill: rgb(243, 234, 250); fill-opacity: 1; fill-rule: nonzero; stroke: none;" id="path282"></path><path d="m 11041.9,2344.6 -56.3,43.8 50.9,45.6 c 13.8,-27 29,-53.3 45.6,-79 -14.6,-3.5 -28,-7 -40.2,-10.4" style="fill: rgb(165, 112, 255); fill-opacity: 1; fill-rule: nonzero; stroke: none;" id="path284"></path><path d="m 13190.9,3460.2 c -22.1,29.3 -46.1,57.5 -71.8,84.5 l 93.1,-65.4 -21.3,-19.1" style="fill: rgb(167, 96, 225); fill-opacity: 1; fill-rule: nonzero; stroke: none;" id="path286"></path><path d="m 12773.4,3787.6 c -50.7,23.1 -104,43.1 -159.5,59.7 l 32.8,29.4 126.7,-89.1" style="fill: rgb(206, 172, 236); fill-opacity: 1; fill-rule: nonzero; stroke: none;" id="path288"></path><path d="m 13292.3,3291.8 c -4.9,10.6 -10,21 -15.3,31.4 l 20.1,-27 -4.8,-4.4" style="fill: rgb(145, 68, 213); fill-opacity: 1; fill-rule: nonzero; stroke: none;" id="path290"></path><path d="m 14571.1,2083.8 -42.2,38.5 c 0,0 3.9,3.7 11.3,10.7 9.7,-16.7 20.1,-33.1 30.9,-49.2" style="fill: rgb(243, 234, 250); fill-opacity: 1; fill-rule: nonzero; stroke: none;" id="path292"></path><path d="m 16536.2,3348.6 c -11.3,10 -22.8,19.9 -34.6,29.5 27.4,-12.4 44.3,-20 44.3,-20 l -9.7,-9.5" style="fill: rgb(194, 149, 238); fill-opacity: 1; fill-rule: nonzero; stroke: none;" id="path294"></path><path d="m 12097.5,1853.4 c -35.2,0 -70.5,1.3 -106,3.9 -166.9,12.3 -321.3,52.8 -457.4,115.5 l 544.4,488.7 c 45.8,2.2 92.9,4.3 141.2,6.3 l -579.1,-527.8 123.2,-44.7 633.5,578.8 c 256.3,8.2 543.2,12.9 859,14.4 -205.7,-377 -660.2,-635.1 -1158.8,-635.1 m -602.2,138.1 c -134.6,68 -249.9,158.4 -339.9,264.7 l 339.9,-264.7 m -488.9,507.5 c -46.3,111.7 -69.2,232.5 -64.8,358 111.1,-11.6 285.9,-30.1 506.3,-54.4 L 11143,2529.4 c -52.6,-9.9 -97.7,-20 -136.6,-30.4 m 1256.8,128.3 80.3,72.2 c 38.1,-4.6 76.5,-9.2 115.3,-13.9 l -58.7,-53.5 c -46.6,-1.5 -92.3,-3.1 -136.9,-4.8 m 312.4,9.7 33.1,30.3 c 67.3,-8.3 135.6,-16.8 204.6,-25.4 -81.6,-1.4 -160.9,-3 -237.7,-4.9 m 774.1,97 c -199.1,26.3 -395.7,51.4 -585.9,75 l 136.2,124.5 461.3,-138.9 c -0.2,-1.4 -0.4,-2.8 -0.6,-4.2 -3.1,-19 -6.8,-37.8 -11,-56.4" style="fill: rgb(248, 242, 253); fill-opacity: 1; fill-rule: nonzero; stroke: none;" id="path296"></path><path d="m 13361.3,2794.6 -461.3,138.9 354.7,324 59.8,-18 c 53.2,-137.7 71.3,-288.7 46.8,-444.9" style="fill: rgb(235, 209, 255); fill-opacity: 1; fill-rule: nonzero; stroke: none;" id="path298"></path><path d="m 13314.5,3239.5 -59.8,18 37.6,34.3 c 8,-17.2 15.4,-34.6 22.2,-52.3" style="fill: rgb(108, 0, 209); fill-opacity: 1; fill-rule: nonzero; stroke: none;" id="path300"></path><path d="m 12614.5,2827.5 c -38.1,4.6 -75.7,9.2 -113.1,13.7 l 177.1,159 94.3,-28.4 -158.3,-144.3" style="fill: rgb(248, 242, 253); fill-opacity: 1; fill-rule: nonzero; stroke: none;" id="path302"></path><path d="m 12772.8,2971.8 -94.3,28.4 359.3,322.6 90.4,-27.2 -355.4,-323.8" style="fill: rgb(235, 209, 255); fill-opacity: 1; fill-rule: nonzero; stroke: none;" id="path304"></path><path d="m 13264.8,3346.2 -6.3,1.9 -29.4,39.5 -25.2,-23 -89.5,26.9 76.5,68.7 c 27.6,-36.4 52.3,-74.5 73.9,-114" style="fill: rgb(139, 45, 215); fill-opacity: 1; fill-rule: nonzero; stroke: none;" id="path306"></path><path d="m 13128.2,3295.6 -90.4,27.2 76.6,68.7 89.5,-26.9 -75.7,-69 m 148.8,27.6 -18.5,24.9 6.3,-1.9 c 4.2,-7.6 8.3,-15.3 12.2,-23" style="fill: rgb(108, 0, 209); fill-opacity: 1; fill-rule: nonzero; stroke: none;" id="path308"></path><path d="m 11607.2,2945.3 c -289.2,32.3 -515.4,56.3 -645.8,69.9 34.9,160.7 112.3,308.5 220.9,435.5 l 740.2,-222.9 -315.3,-282.5" style="fill: rgb(248, 242, 253); fill-opacity: 1; fill-rule: nonzero; stroke: none;" id="path310"></path><path d="m 11922.5,3227.8 -740.2,222.9 c 107.8,126 246.2,231.6 404.3,309.1 l 695.8,-209.5 -359.9,-322.5" style="fill: rgb(235, 209, 255); fill-opacity: 1; fill-rule: nonzero; stroke: none;" id="path312"></path><path d="m 11769,3796.6 -56.9,17.2 c 13.8,5.2 27.8,10.1 41.8,14.9 5.1,-10.7 10.1,-21.4 15.1,-32.1" style="fill: rgb(161, 102, 255); fill-opacity: 1; fill-rule: nonzero; stroke: none;" id="path314"></path><path d="m 12359,3619 -590,177.6 c -5,10.7 -10,21.4 -15.1,32.1 144.8,49 300.9,75.8 461.7,75.8 35.2,0 70.5,-1.3 106,-3.9 102.7,-7.5 200.5,-25.7 292.3,-53.3 L 12359,3619" style="fill: rgb(191, 145, 238); fill-opacity: 1; fill-rule: nonzero; stroke: none;" id="path316"></path><path d="m 12282.4,3550.3 -695.8,209.5 c 40.6,19.9 82.5,37.9 125.5,54 l 56.9,-17.2 590,-177.6 -76.6,-68.7" style="fill: rgb(108, 0, 209); fill-opacity: 1; fill-rule: nonzero; stroke: none;" id="path318"></path><path d="m 13119.1,3544.7 -265.4,186.5 c 2.8,3.9 5.5,7.8 8.2,11.7 97.9,-54.8 184.5,-121.7 257.2,-198.2" style="fill: rgb(139, 45, 215); fill-opacity: 1; fill-rule: nonzero; stroke: none;" id="path320"></path><path d="m 12853.7,3731.2 -80.3,56.4 c 30.5,-13.8 60,-28.7 88.5,-44.7 -2.7,-3.9 -5.4,-7.8 -8.2,-11.7" style="fill: rgb(191, 145, 238); fill-opacity: 1; fill-rule: nonzero; stroke: none;" id="path322"></path><path d="m 11036.5,2434 c -10.9,21.3 -21,43 -30.1,65 38.9,10.4 84,20.5 136.6,30.4 l -106.5,-95.4 m 1042,27.5 184.7,165.8 c 44.6,1.7 90.3,3.3 136.9,4.8 l -180.4,-164.3 c -48.3,-2 -95.4,-4.1 -141.2,-6.3 m 318.8,12.6 178.3,162.9 c 76.8,1.9 156.1,3.5 237.7,4.9 159,-19.9 322,-40.8 486.8,-62.6 -13,-31 -27.6,-61.3 -43.8,-90.8 -315.8,-1.5 -602.7,-6.2 -859,-14.4" style="fill: rgb(169, 110, 222); fill-opacity: 1; fill-rule: nonzero; stroke: none;" id="path324"></path><path d="m 13300.1,2579.3 c -164.8,21.8 -327.8,42.7 -486.8,62.6 -69,8.6 -137.3,17.1 -204.6,25.4 l 155.1,141.7 c 190.2,-23.6 386.8,-48.7 585.9,-75 -12,-53.1 -28.7,-104.8 -49.6,-154.7 m -841.3,106.3 c -38.8,4.7 -77.2,9.3 -115.3,13.9 l 157.9,141.7 c 37.4,-4.5 75,-9.1 113.1,-13.7 l -155.7,-141.9 m -1010.9,117 c -220.4,24.3 -395.2,42.8 -506.3,54.4 1.2,36.5 4.8,73.4 10.8,110.5 2.6,16 5.6,31.9 9,47.7 130.4,-13.6 356.6,-37.6 645.8,-69.9 l -159.3,-142.7" style="fill: rgb(164, 46, 255); fill-opacity: 1; fill-rule: nonzero; stroke: none;" id="path326"></path><path d="m 11534.1,1972.8 c -13.1,6.1 -26,12.3 -38.8,18.7 l -339.9,264.7 c -26.7,31.6 -51.2,64.6 -73.3,98.8 44.6,10.9 100.6,22.2 171,33.4 183.6,29.1 432.9,52.3 740.9,68.8 27.6,1.5 55.8,2.9 84.5,4.3 l -544.4,-488.7 m -391.1,556.6 304.9,273.2 c 249,-27.5 556.2,-62.4 895.6,-103.1 l -80.3,-72.2 c -95.2,-3.6 -185.8,-7.7 -271.8,-12.3 -402.6,-21.6 -669.1,-51.9 -848.4,-85.6" style="fill: rgb(244, 224, 255); fill-opacity: 1; fill-rule: nonzero; stroke: none;" id="path328"></path><path d="m 11082.1,2355 c -16.6,25.7 -31.8,52 -45.6,79 l 106.5,95.4 c 179.3,33.7 445.8,64 848.4,85.6 86,4.6 176.6,8.7 271.8,12.3 l -184.7,-165.8 c -28.7,-1.4 -56.9,-2.8 -84.5,-4.3 -308,-16.5 -557.3,-39.7 -740.9,-68.8 -70.4,-11.2 -126.4,-22.5 -171,-33.4" style="fill: rgb(204, 138, 255); fill-opacity: 1; fill-rule: nonzero; stroke: none;" id="path330"></path><path d="m 12501.4,2841.2 c -332.3,40.3 -638,75.5 -894.2,104.1 l 315.3,282.5 756,-227.6 -177.1,-159" style="fill: rgb(244, 224, 255); fill-opacity: 1; fill-rule: nonzero; stroke: none;" id="path332"></path><path d="m 12678.5,3000.2 -756,227.6 359.9,322.5 755.4,-227.5 -359.3,-322.6" style="fill: rgb(235, 209, 255); fill-opacity: 1; fill-rule: nonzero; stroke: none;" id="path334"></path><path d="m 13114.4,3391.5 -426.3,128.4 c 58.6,67.8 113.9,138.4 165.6,211.3 l 265.4,-186.5 c 25.7,-27 49.7,-55.2 71.8,-84.5 l -76.5,-68.7" style="fill: rgb(184, 107, 255); fill-opacity: 1; fill-rule: nonzero; stroke: none;" id="path336"></path><path d="m 12688.1,3519.9 -329.1,99.1 254.9,228.3 c 55.5,-16.6 108.8,-36.6 159.5,-59.7 l 80.3,-56.4 c -51.7,-72.9 -107,-143.5 -165.6,-211.3" style="fill: rgb(213, 184, 239); fill-opacity: 1; fill-rule: nonzero; stroke: none;" id="path338"></path><path d="m 13037.8,3322.8 -755.4,227.5 76.6,68.7 329.1,-99.1 426.3,-128.4 -76.6,-68.7" style="fill: rgb(171, 82, 255); fill-opacity: 1; fill-rule: nonzero; stroke: none;" id="path340"></path><path d="m 12343.5,2699.5 c -339.4,40.7 -646.6,75.6 -895.6,103.1 l 159.3,142.7 c 256.2,-28.6 561.9,-63.8 894.2,-104.1 l -157.9,-141.7" style="fill: rgb(171, 122, 255); fill-opacity: 1; fill-rule: nonzero; stroke: none;" id="path342"></path><path d="m 11763.8,1895.3 -123.2,44.7 579.1,527.8 c 57.5,2.3 116.7,4.4 177.6,6.3 l -633.5,-578.8 m 636.3,736.8 58.7,53.5 c 49.4,-6 99.4,-12.1 149.9,-18.3 l -33.1,-30.3 c -60,-1.5 -118.5,-3.1 -175.5,-4.9" style="fill: rgb(244, 224, 255); fill-opacity: 1; fill-rule: nonzero; stroke: none;" id="path344"></path><path d="m 12219.7,2467.8 180.4,164.3 c 57,1.8 115.5,3.4 175.5,4.9 l -178.3,-162.9 c -60.9,-1.9 -120.1,-4 -177.6,-6.3" style="fill: rgb(204, 138, 255); fill-opacity: 1; fill-rule: nonzero; stroke: none;" id="path346"></path><path d="m 12763.8,2809 c -50.2,6.3 -100,12.4 -149.3,18.5 l 158.3,144.3 127.2,-38.3 -136.2,-124.5" style="fill: rgb(244, 224, 255); fill-opacity: 1; fill-rule: nonzero; stroke: none;" id="path348"></path><path d="m 12900,2933.5 -127.2,38.3 355.4,323.8 126.5,-38.1 -354.7,-324" style="fill: rgb(235, 209, 255); fill-opacity: 1; fill-rule: nonzero; stroke: none;" id="path350"></path><path d="m 13258.5,3348.1 -54.6,16.5 25.2,23 29.4,-39.5" style="fill: rgb(184, 107, 255); fill-opacity: 1; fill-rule: nonzero; stroke: none;" id="path352"></path><path d="m 13254.7,3257.5 -126.5,38.1 75.7,69 54.6,-16.5 18.5,-24.9 c 5.3,-10.4 10.4,-20.8 15.3,-31.4 l -37.6,-34.3" style="fill: rgb(171, 82, 255); fill-opacity: 1; fill-rule: nonzero; stroke: none;" id="path354"></path><path d="m 12608.7,2667.3 c -50.5,6.2 -100.5,12.3 -149.9,18.3 l 155.7,141.9 c 49.3,-6.1 99.1,-12.2 149.3,-18.5 l -155.1,-141.7" style="fill: rgb(171, 122, 255); fill-opacity: 1; fill-rule: nonzero; stroke: none;" id="path356"></path><path d="m 15576.4,1597.5 c -35.1,0 -70.4,1.3 -105.9,3.9 -395.4,29.1 -720.2,216.6 -899.4,482.4 l 344.5,-313.7 495.9,483 c 31.8,-6.1 63.1,-12.1 93.8,-18.1 -275.8,-272.5 -498.2,-492.4 -504.7,-499.5 l 84,-48.8 545.6,523.4 c 9.8,-2 19.5,-4 29.2,-6 295.4,-60.9 531.4,-119.8 701.4,-174.9 72,-23.4 126.8,-44.4 168.6,-62.7 -237.8,-227.1 -583.2,-369 -953,-369 m 1070.3,499.4 c -144.8,67.4 -402.8,149 -875.4,248.6 l 103,98.7 c 424.5,-14 759.7,-27.7 935.8,-35.3 -34.8,-112.3 -90.7,-217.3 -163.4,-312 m -1003,274.8 c -30,6.1 -60.6,12.1 -91.8,18.2 l 64.2,62.5 c 35.8,-1.1 71,-2.2 105.9,-3.3 -26.2,-25.9 -52.4,-51.8 -78.3,-77.4 m 1200.5,194.4 c -153,6.7 -440.9,18.6 -810.3,31.3 l 18.6,17.8 c 14,0.9 28,1.9 41.8,3 5.2,16.6 10.7,34.4 16.2,52.6 l 136.7,131.2 63.1,-158.9 c 191.5,29.6 369.7,76.7 534.5,135.8 8.4,-69.2 8.5,-140.3 -0.6,-212.8 m -664.6,334.9 c 7.5,25.3 12,40.8 12,40.8 l 8.3,-20.7 c -6.7,-6.7 -13.5,-13.4 -20.3,-20.1" style="fill: rgb(248, 242, 253); fill-opacity: 1; fill-rule: nonzero; stroke: none;" id="path358"></path><path d="m 16052.5,2615.2 58,55.6 c -5.5,-18.2 -11,-36 -16.2,-52.6 -13.8,-1.1 -27.8,-2.1 -41.8,-3 m 257.8,27.9 -63.1,158.9 410.9,394.1 -79.5,98.9 c 0,0 -160.3,-158.3 -378.7,-373.9 l -8.3,20.7 c 0,0 -4.5,-15.5 -12,-40.8 -67.8,-66.9 -140.7,-138.9 -215.8,-213.1 v 103.2 l 572.4,557.5 c 170.8,-151.9 281.8,-350.5 308.6,-569.7 -164.8,-59.1 -343,-106.2 -534.5,-135.8" style="fill: rgb(161, 102, 255); fill-opacity: 1; fill-rule: nonzero; stroke: none;" id="path360"></path><path d="m 15814.2,2604.7 c -13.4,0.4 -26.9,0.8 -40.5,1.2 l 40.5,39.5 v -40.7" style="fill: rgb(120, 32, 207); fill-opacity: 1; fill-rule: nonzero; stroke: none;" id="path362"></path><path d="m 15877.4,2602.6 c -20.8,0.7 -42,1.4 -63.2,2.1 v 40.7 l 149.6,145.7 v -103.2 c -28.5,-28.2 -57.4,-56.6 -86.4,-85.3" style="fill: rgb(108, 0, 209); fill-opacity: 1; fill-rule: nonzero; stroke: none;" id="path364"></path><path d="m 16810.1,2408.9 c -176.1,7.6 -511.3,21.3 -935.8,35.3 l 159.6,153.2 c 369.4,-12.7 657.3,-24.6 810.3,-31.3 -1.4,-10.5 -2.9,-21 -4.6,-31.6 -6.9,-42.7 -16.8,-84.7 -29.5,-125.6 m -1088.1,40.2 c -34.9,1.1 -70.1,2.2 -105.9,3.3 l 157.6,153.5 c 13.6,-0.4 27.1,-0.8 40.5,-1.2 v 0 c 21.2,-0.7 42.4,-1.4 63.2,-2.1 -51.6,-51 -103.7,-102.4 -155.4,-153.5" style="fill: rgb(169, 110, 222); fill-opacity: 1; fill-rule: nonzero; stroke: none;" id="path366"></path><path d="m 16529.4,1966.5 c -41.8,18.3 -96.6,39.3 -168.6,62.7 -170,55.1 -406,114 -701.4,174.9 -9.7,2 -19.4,4 -29.2,6 l 141.1,135.4 c 472.6,-99.6 730.6,-181.2 875.4,-248.6 -35.3,-46 -74.6,-89.6 -117.3,-130.4 M 15505.3,2235 c -30.7,6 -62,12 -93.8,18.1 l 140.4,136.8 c 31.2,-6.1 61.8,-12.1 91.8,-18.2 -47.1,-46.5 -93.4,-92.3 -138.4,-136.7" style="fill: rgb(164, 46, 255); fill-opacity: 1; fill-rule: nonzero; stroke: none;" id="path368"></path><path d="m 14540.2,2133 c -51.9,88.5 -88.2,184.6 -106.6,285.6 120.8,-18.6 237,-37 348.6,-55.2 -121.7,-115.8 -211.6,-201.4 -242,-230.4" style="fill: rgb(248, 242, 253); fill-opacity: 1; fill-rule: nonzero; stroke: none;" id="path370"></path><path d="m 15058.5,2626 c -43.5,1 -87.4,2 -131.6,3 v 796.5 c 98.5,63.7 207.5,115.5 323.7,153.2 v -770.3 c -65.1,-61.8 -129.7,-123.2 -192.1,-182.4" style="fill: rgb(213, 184, 239); fill-opacity: 1; fill-rule: nonzero; stroke: none;" id="path372"></path><path d="m 14926.9,2629 c -164.5,3.7 -333.4,7.1 -504.2,9.8 1.8,24.2 4.7,48.4 8.7,72.8 9.8,61 25.8,120.2 47.2,177.4 l 257,-77.4 v 462.3 c 57.7,55.8 121.9,106.7 191.3,151.6 V 2629" style="fill: rgb(235, 209, 255); fill-opacity: 1; fill-rule: nonzero; stroke: none;" id="path374"></path><path d="m 14647.8,2929.8 -134.3,40.4 c 35.8,74.1 81,143.9 134.3,208.6 v -249" style="fill: rgb(139, 45, 215); fill-opacity: 1; fill-rule: nonzero; stroke: none;" id="path376"></path><path d="m 14735.6,2811.6 -257,77.4 c 10.4,27.6 22,54.7 34.9,81.2 l 134.3,-40.4 v 249 c 27.3,33.1 56.6,64.8 87.8,95.1 v -462.3" style="fill: rgb(108, 0, 209); fill-opacity: 1; fill-rule: nonzero; stroke: none;" id="path378"></path><path d="m 16501.6,3378.1 c -117,52.5 -426,190.7 -441.3,190.7 -0.1,0 -0.2,-0.1 -0.3,-0.1 -2.2,-0.3 -37.5,-32.5 -96.2,-87.1 v 141.5 c 209,-40.4 392.6,-126.7 537.8,-245" style="fill: rgb(161, 102, 255); fill-opacity: 1; fill-rule: nonzero; stroke: none;" id="path380"></path><path d="m 15574.4,3115.1 v 528.5 c 39.7,3.3 79.8,5 120.2,5 35.1,0 70.4,-1.3 106,-3.9 4.5,-0.3 9.1,-0.7 13.6,-1 v -302.2 c -70.6,-66.5 -152.4,-143.7 -239.8,-226.4" style="fill: rgb(120, 32, 207); fill-opacity: 1; fill-rule: nonzero; stroke: none;" id="path382"></path><path d="m 15814.2,3341.5 v 302.2 c 51.1,-4.3 101,-11.2 149.6,-20.6 v -141.5 c -40.1,-37.2 -91,-85 -149.6,-140.1" style="fill: rgb(108, 0, 209); fill-opacity: 1; fill-rule: nonzero; stroke: none;" id="path384"></path><path d="m 15409.4,2958.9 -5.7,660.2 c 55.9,11.4 112.8,19.7 170.7,24.5 v -528.5 c -53.3,-50.4 -108.8,-102.9 -165,-156.2" style="fill: rgb(213, 184, 239); fill-opacity: 1; fill-rule: nonzero; stroke: none;" id="path386"></path><path d="m 15250.6,2808.4 v 770.3 c 49.8,16.1 101,29.6 153.1,40.4 l 5.7,-660.2 c -52.5,-49.8 -105.8,-100.3 -158.8,-150.5" style="fill: rgb(165, 112, 255); fill-opacity: 1; fill-rule: nonzero; stroke: none;" id="path388"></path><path d="m 14927.9,2501.9 c -159.5,26.6 -329,53.6 -507.8,80.8 0.2,18.6 1.1,37.3 2.6,56.1 170.8,-2.7 339.7,-6.1 504.2,-9.8 44.2,-1 88.1,-2 131.6,-3 -44.9,-42.7 -88.7,-84.3 -130.6,-124.1" style="fill: rgb(169, 110, 222); fill-opacity: 1; fill-rule: nonzero; stroke: none;" id="path390"></path><path d="m 14782.2,2363.4 c -111.6,18.2 -227.8,36.6 -348.6,55.2 -9.7,53.4 -14.3,108.3 -13.5,164.1 178.8,-27.2 348.3,-54.2 507.8,-80.8 -52,-49.4 -100.9,-96 -145.7,-138.5" style="fill: rgb(164, 46, 255); fill-opacity: 1; fill-rule: nonzero; stroke: none;" id="path392"></path><path d="m 14915.6,1770.1 -344.5,313.7 c -10.8,16.1 -21.2,32.5 -30.9,49.2 30.4,29 120.3,114.6 242,230.4 8.1,-1.3 16.2,-2.6 24.1,-3.9 l 120.6,-36.3 26.4,11.8 c 163.7,-27.7 316.6,-55.1 458.2,-81.9 l -495.9,-483" style="fill: rgb(244, 224, 255); fill-opacity: 1; fill-rule: nonzero; stroke: none;" id="path394"></path><path d="m 14926.9,2323.2 v 16.2 c 8.8,-1.5 17.6,-2.9 26.4,-4.4 l -26.4,-11.8" style="fill: rgb(224, 189, 255); fill-opacity: 1; fill-rule: nonzero; stroke: none;" id="path396"></path><path d="m 14926.9,2323.2 -120.6,36.3 c 40.8,-6.7 81,-13.4 120.6,-20.1 v -16.2" style="fill: rgb(235, 209, 255); fill-opacity: 1; fill-rule: nonzero; stroke: none;" id="path398"></path><path d="m 15551.9,2389.9 c -84.5,16.5 -173.4,33.2 -266.3,50 l 26.8,21.2 c 104.2,-2.8 205.7,-5.8 303.7,-8.7 l -64.2,-62.5 m -301.3,56.3 c -11.5,2.1 -23.2,4.1 -34.8,6.2 l 23.7,10.6 c 3.7,-0.1 7.4,-0.2 11.1,-0.3 v -16.5" style="fill: rgb(244, 224, 255); fill-opacity: 1; fill-rule: nonzero; stroke: none;" id="path400"></path><path d="m 15215.8,2452.4 c -24.6,4.4 -49.5,8.8 -74.6,13.1 32.9,-0.8 65.8,-1.6 98.3,-2.5 l -23.7,-10.6" style="fill: rgb(224, 189, 255); fill-opacity: 1; fill-rule: nonzero; stroke: none;" id="path402"></path><path d="m 15625.5,2610.5 c -17.5,0.6 -35.1,1.1 -52.8,1.6 l 1.7,0.8 v 8.4 l 51.1,-10.8" style="fill: rgb(244, 224, 255); fill-opacity: 1; fill-rule: nonzero; stroke: none;" id="path404"></path><path d="m 15963.8,2791.1 v 690.5 c 58.7,54.6 94,86.8 96.2,87.1 0.1,0 0.2,0.1 0.3,0.1 15.3,0 324.3,-138.2 441.3,-190.7 11.8,-9.6 23.3,-19.5 34.6,-29.5 l -572.4,-557.5" style="fill: rgb(211, 153, 255); fill-opacity: 1; fill-rule: nonzero; stroke: none;" id="path406"></path><path d="m 15773.7,2605.9 c -48.4,1.6 -97.9,3.1 -148.2,4.6 l -51.1,10.8 v 493.8 c 87.4,82.7 169.2,159.9 239.8,226.4 v -696.1 l -40.5,-39.5" style="fill: rgb(176, 118, 234); fill-opacity: 1; fill-rule: nonzero; stroke: none;" id="path408"></path><path d="m 15814.2,2645.4 v 696.1 c 58.6,55.1 109.5,102.9 149.6,140.1 v -690.5 l -149.6,-145.7" style="fill: rgb(171, 82, 255); fill-opacity: 1; fill-rule: nonzero; stroke: none;" id="path410"></path><path d="m 15572.7,2612.1 c -52.5,1.6 -106.1,3.1 -160.4,4.6 l -2.9,342.2 c 56.2,53.3 111.7,105.8 165,156.2 v -493.8 -8.4 l -1.7,-0.8 m -322.1,9 c -63.1,1.7 -127.2,3.3 -192.1,4.9 62.4,59.2 127,120.6 192.1,182.4 v -187.3" style="fill: rgb(224, 189, 255); fill-opacity: 1; fill-rule: nonzero; stroke: none;" id="path412"></path><path d="m 15285.6,2439.9 c -11.6,2.1 -23.2,4.2 -35,6.3 v 16.5 c 20.7,-0.5 41.3,-1.1 61.8,-1.6 l -26.8,-21.2" style="fill: rgb(224, 189, 255); fill-opacity: 1; fill-rule: nonzero; stroke: none;" id="path414"></path><path d="m 15412.3,2616.7 c -53.1,1.5 -107,3 -161.7,4.4 v 187.3 c 53,50.2 106.3,100.7 158.8,150.5 l 2.9,-342.2" style="fill: rgb(215, 163, 255); fill-opacity: 1; fill-rule: nonzero; stroke: none;" id="path416"></path><path d="m 15616.1,2452.4 c -98,2.9 -199.5,5.9 -303.7,8.7 -20.5,0.5 -41.1,1.1 -61.8,1.6 -3.7,0.1 -7.4,0.2 -11.1,0.3 -32.5,0.9 -65.4,1.7 -98.3,2.5 -69,12.1 -140.1,24.2 -213.3,36.4 41.9,39.8 85.7,81.4 130.6,124.1 64.9,-1.6 129,-3.2 192.1,-4.9 54.7,-1.4 108.6,-2.9 161.7,-4.4 54.3,-1.5 107.9,-3 160.4,-4.6 17.7,-0.5 35.3,-1 52.8,-1.6 50.3,-1.5 99.8,-3 148.2,-4.6 l -157.6,-153.5" style="fill: rgb(204, 138, 255); fill-opacity: 1; fill-rule: nonzero; stroke: none;" id="path418"></path><path d="m 15411.5,2253.1 c -141.6,26.8 -294.5,54.2 -458.2,81.9 -8.8,1.5 -17.6,2.9 -26.4,4.4 -39.6,6.7 -79.8,13.4 -120.6,20.1 -7.9,1.3 -16,2.6 -24.1,3.9 44.8,42.5 93.7,89.1 145.7,138.5 73.2,-12.2 144.3,-24.3 213.3,-36.4 25.1,-4.3 50,-8.7 74.6,-13.1 11.6,-2.1 23.3,-4.1 34.8,-6.2 11.8,-2.1 23.4,-4.2 35,-6.3 92.9,-16.8 181.8,-33.5 266.3,-50 l -140.4,-136.8" style="fill: rgb(171, 122, 255); fill-opacity: 1; fill-rule: nonzero; stroke: none;" id="path420"></path><path d="m 15084.6,1686.7 -84,48.8 c 6.5,7.1 228.9,227 504.7,499.5 42.8,-8.4 84.3,-16.7 124.9,-24.9 l -545.6,-523.4 m 686.7,658.8 c -19.3,4 -39,8.1 -59,12.3 -22.5,4.6 -45.4,9.3 -68.6,13.9 25.9,25.6 52.1,51.5 78.3,77.4 51.9,-1.6 102.7,-3.3 152.3,-4.9 l -103,-98.7 m 262.6,251.9 c -23,0.7 -46.4,1.5 -70.1,2.3 v 11.1 c 29.8,1 59.4,2.5 88.7,4.4 l -18.6,-17.8 m 76.6,73.4 c 25.5,83.6 53.5,177.7 69.1,230.2 6.8,6.7 13.6,13.4 20.3,20.1 l 47.3,-119.1 -136.7,-131.2" style="fill: rgb(244, 224, 255); fill-opacity: 1; fill-rule: nonzero; stroke: none;" id="path422"></path><path d="m 15963.8,2610.8 v 77.1 c 75.1,74.2 148,146.2 215.8,213.1 -15.6,-52.5 -43.6,-146.6 -69.1,-230.2 l -58,-55.6 c -29.3,-1.9 -58.9,-3.4 -88.7,-4.4 m 283.4,191.2 -47.3,119.1 c 218.4,215.6 378.7,373.9 378.7,373.9 l 79.5,-98.9 -410.9,-394.1" style="fill: rgb(211, 153, 255); fill-opacity: 1; fill-rule: nonzero; stroke: none;" id="path424"></path><path d="m 15963.8,2599.7 c -28.4,1 -57.1,1.9 -86.4,2.9 29,28.7 57.9,57.1 86.4,85.3 v -77.1 -11.1" style="fill: rgb(171, 82, 255); fill-opacity: 1; fill-rule: nonzero; stroke: none;" id="path426"></path><path d="m 15874.3,2444.2 c -49.6,1.6 -100.4,3.3 -152.3,4.9 51.7,51.1 103.8,102.5 155.4,153.5 29.3,-1 58,-1.9 86.4,-2.9 23.7,-0.8 47.1,-1.6 70.1,-2.3 l -159.6,-153.2" style="fill: rgb(204, 138, 255); fill-opacity: 1; fill-rule: nonzero; stroke: none;" id="path428"></path><path d="m 15630.2,2210.1 c -40.6,8.2 -82.1,16.5 -124.9,24.9 45,44.4 91.3,90.2 138.4,136.7 23.2,-4.6 46.1,-9.3 68.6,-13.9 20,-4.2 39.7,-8.3 59,-12.3 l -141.1,-135.4" style="fill: rgb(171, 122, 255); fill-opacity: 1; fill-rule: nonzero; stroke: none;" id="path430"></path><path d="m 16773.3,2539.4 c -86,-532.4 -666.4,-927.9 -1293.8,-881.8 -627.4,46.2 -1067.8,516.8 -981.8,1049.2 3.1,19.4 7,38.7 11.5,57.8 l 1.1,0.8 -0.8,0.8 c 118,502 678.2,866.7 1282,822.3 627.4,-46.2 1067.8,-516.8 981.8,-1049.1 z m -3478.9,255.9 c -86,-532.4 -666.4,-927.9 -1293.8,-881.8 -627.4,46.2 -1067.9,516.8 -981.9,1049.1 86,532.4 666.4,927.9 1293.8,881.8 627.4,-46.2 1067.9,-516.8 981.9,-1049.1 z m 3647,-150.3 -24,1.8 c 8.6,246.1 -81.6,481.3 -260.4,672.4 -207.1,221.2 -508,356.8 -847.4,381.8 -339.3,24.9 -676.4,-63.7 -949.3,-249.7 -225.3,-153.5 -384.4,-358.3 -459.2,-587.1 -232.7,176.4 -494.8,178.6 -685.5,143.9 -109.2,-19.9 -205,-53.6 -276.6,-84.1 2.8,238.3 -87.3,465.5 -261,651.1 -207.1,221.2 -508,356.8 -847.3,381.8 -339.3,24.9 -676.5,-63.7 -949.3,-249.7 -235.7,-160.6 -398.9,-377.2 -469,-618.7 l -24.1,1.8 c -93.7,6.8 -180.1,-52 -193,-131.6 -12.8,-79.5 52.8,-149.5 146.5,-156.4 l 32.6,-2.4 c 5.7,-225.9 95.3,-440.4 260.7,-617.1 207.1,-221.2 508,-356.8 847.3,-381.8 339.4,-24.9 676.5,63.7 949.3,249.7 253.6,172.8 423.3,410.4 483.4,674.1 l 1,-1.2 c 1.5,0.9 147.7,88.9 338,122.2 240.8,42.3 442.2,-21 598.4,-187.9 l 5.4,3.6 c -27.5,-268.4 62.3,-527.4 256.2,-734.6 207,-221.2 507.9,-356.8 847.3,-381.8 339.3,-24.9 676.5,63.7 949.3,249.7 217.9,148.5 373.9,344.9 451.6,564.6 l 32.6,-2.4 c 93.7,-6.9 180.1,52 193,131.6 12.8,79.5 -52.7,149.5 -146.5,156.4" style="fill: rgb(152, 92, 255); fill-opacity: 1; fill-rule: nonzero; stroke: none;" id="path432"></path><path d="m 7801.25,4904.8 -79.17,-176.6 c -6.53,-14.5 -0.01,-31.7 14.58,-38.2 l 413.48,-185.4 c 29.92,-13.4 58.83,20.6 40.81,48 l -160.02,249.3 c 0,0 -126.49,-23.2 -229.68,102.9" style="fill: rgb(53, 19, 83); fill-opacity: 1; fill-rule: nonzero; stroke: none;" id="path434"></path><path d="m 5978.9,7101.9 c 0,0 -127.39,-599.4 450.56,-741.7 577.94,-142.3 1307.31,-156.8 1307.31,-156.8 l 13.49,-1396.3 304.21,-34.8 c 0,0 907.76,1881.5 -160.92,2252.1 l -977.83,56.9 -400.7,54.1 c 0,0 -400.95,126.4 -406.95,107.5 -6,-18.9 -120.2,-151.2 -129.17,-141" style="fill: rgb(153, 20, 255); fill-opacity: 1; fill-rule: nonzero; stroke: none;" id="path436"></path><path d="m 8237.7,8699.5 c 86.97,109.8 53.59,201.8 -64.37,364.6 -179.06,247.1 -399.15,284.1 -587.48,449.2 -65.92,57.8 -174.8,240.7 -246.47,368.4 -36.99,65.8 -68.56,134.5 -97.41,204.3 -160.11,387.8 -534.19,324.7 -534.19,324.7 0,0 19.28,-490.5 20.72,-504.2 0.29,-2.8 15.48,-10.7 39.3,-21.6 -74.67,-73.5 -195.38,-192.9 -219.19,-232.5 -34.63,-57.5 -176.73,-307.1 -176.73,-307.1 0,0 246.27,-683.8 269.45,-875 12.26,-101.2 164.84,-130.2 336.98,-139.8 108.92,-209.6 260.07,-421.9 420.98,-407.9 312.97,27.1 301.94,148 404.38,247.2 102.44,99.3 320.32,-5.1 460.47,165.2 107.06,130.1 -80.67,296 -26.44,364.5" style="fill: rgb(53, 19, 83); fill-opacity: 1; fill-rule: nonzero; stroke: none;" id="path438"></path><path d="m 7116.22,8297.1 c 0,0 -108.94,-1106.6 -6.44,-1249.4 h -418.2 V 8363 l 424.64,-65.9" style="fill: rgb(224, 199, 244); fill-opacity: 1; fill-rule: nonzero; stroke: none;" id="path440"></path><path d="m 6032.73,10199.6 c 0,0 -122.3,-184 -184.7,-256.9 -156.98,-183.5 -177.19,-126 -274.76,-283.8 -105.3,-170.4 1.24,-277 61.8,-326.1 60.56,-49.1 -40.77,-230.7 72.07,-332.5 83.28,-75.2 163.04,-68 234.98,-60.8 55.66,5.5 106.65,11.1 150.97,-21.5 101.61,-74.7 123.83,-185.3 364.69,-164.4 240.86,20.9 238.5,808.4 238.5,808.4 0,0 -197.14,417.5 -204.96,421 -7.83,3.4 -458.59,216.6 -458.59,216.6" style="fill: rgb(53, 19, 83); fill-opacity: 1; fill-rule: nonzero; stroke: none;" id="path442"></path><path d="m 6659.38,9080.2 c 0,0 -401.98,74 -586.83,67.7 -184.85,-6.2 112.03,-486.8 112.03,-486.8 l 301.89,-6.7 c 0,0 185.08,206.7 172.91,230.7 -12.17,24.1 0.57,181.8 0.57,181.8 l -0.57,13.3" style="fill: rgb(224, 199, 244); fill-opacity: 1; fill-rule: nonzero; stroke: none;" id="path444"></path><path d="M 6300.95,9463.8 6194.92,9142 c 0,0 92.31,-190.9 375.01,-108.6 0,0 -32.25,66.7 11.01,204 44.21,140.2 -279.99,226.4 -279.99,226.4" style="fill: rgb(224, 199, 244); fill-opacity: 1; fill-rule: nonzero; stroke: none;" id="path446"></path><path d="m 6558.46,9105.5 c -0.03,0 -0.05,0 -0.09,0.1 -0.03,23.7 2.7,53.3 10.89,89 h 0.01 c -8.18,-35.7 -10.85,-65.3 -10.81,-89.1 m -307.17,207.6 c -0.03,0.1 -0.06,0.2 -0.1,0.4 l 12.98,39.2 c 0.04,-0.1 0.08,-0.1 0.12,-0.2 l -13,-39.4" style="fill: rgb(140, 60, 211); fill-opacity: 1; fill-rule: nonzero; stroke: none;" id="path448"></path><path d="m 6558.37,9105.6 c -181.16,23.2 -277.34,97.8 -307.08,207.5 l 13,39.4 c 72.13,-93.3 181.52,-154.2 304.97,-157.9 -8.19,-35.7 -10.92,-65.3 -10.89,-89" style="fill: rgb(211, 153, 255); fill-opacity: 1; fill-rule: nonzero; stroke: none;" id="path450"></path><path d="m 6947.71,9699.4 c -22.94,-52.2 -7.65,-109.5 34.16,-127.8 41.81,-18.4 94.3,9.1 117.24,61.3 22.94,52.3 7.65,109.6 -34.16,127.9 -41.81,18.4 -94.3,-9.1 -117.24,-61.4" style="fill: rgb(201, 164, 234); fill-opacity: 1; fill-rule: nonzero; stroke: none;" id="path452"></path><path d="m 6924.32,9390.7 c 13.75,22.5 25.53,46.4 35.1,71.4 27.11,67.3 41.8,139.1 49.59,201.9 1.67,13.5 4.12,26.8 6.82,40.1 10.89,53.7 12.21,111 1.1,170.1 -35.73,190.5 -195.37,337.4 -388.12,356.9 -259.69,26.2 -480.26,-173.4 -487.03,-427.4 -27.2,16.1 -58.11,20.5 -85.73,9 -53,-22 -73.67,-93.5 -46.17,-159.8 27.5,-66.2 92.76,-102.1 145.75,-80.1 7.37,3.1 14.03,7.2 20.1,12 16.26,-216.7 188.87,-388.2 401.32,-390.3 103.89,-1.1 199.06,38.6 271.63,104.7 4.85,3.8 9.94,8.3 15.3,13.6 23.55,23.1 43.41,49.5 60.34,77.9" style="fill: rgb(224, 199, 244); fill-opacity: 1; fill-rule: nonzero; stroke: none;" id="path454"></path><path d="m 6823.47,9779.7 c -8.36,-23.9 -12.73,-48.9 -14.14,-74.4 -0.69,-12.8 -0.38,-25.6 1.36,-38.8 2,-13.1 5.04,-26.6 13.35,-39.6 l 3.67,-4.8 3.29,-4 c 1.36,-1.9 3.44,-3.5 4.37,-5.6 2.6,-3.7 4.2,-7.8 4.82,-12.1 1.76,-8.5 -2.25,-17.8 -8.45,-26.1 -13.4,-16.7 -36.89,-25.8 -61.39,-30.8 24.4,-4.8 53.39,-1.8 75.01,17.9 10.55,9.5 18.71,24.7 17.5,41.1 -0.29,4.1 -0.92,8.1 -2.39,11.9 -1.07,4 -3.04,7.3 -4.98,10.8 -1.81,3.6 -4.61,6.1 -6.95,9.2 -1.49,1.7 -1.72,2.2 -2.49,3.2 l -2.03,2.6 c -5.23,7.9 -8.44,19 -10.95,30.2 -2.76,11.3 -3.55,23.3 -5.05,35.3 -2.1,24.1 -3.05,48.8 -4.55,74" style="fill: rgb(201, 164, 234); fill-opacity: 1; fill-rule: nonzero; stroke: none;" id="path456"></path><path d="m 6674.05,9728.4 c -0.21,-21.2 -17.64,-38.3 -38.92,-38.1 -21.29,0.2 -38.36,17.6 -38.15,38.9 0.21,21.3 17.64,38.4 38.92,38.2 21.29,-0.3 38.37,-17.7 38.15,-39" style="fill: rgb(53, 19, 83); fill-opacity: 1; fill-rule: nonzero; stroke: none;" id="path458"></path><path d="m 6960.29,9721.4 c -0.22,-21.3 -17.64,-38.4 -38.93,-38.1 -21.28,0.2 -38.36,17.6 -38.14,38.9 0.21,21.3 17.64,38.3 38.92,38.1 21.28,-0.2 38.36,-17.6 38.15,-38.9" style="fill: rgb(53, 19, 83); fill-opacity: 1; fill-rule: nonzero; stroke: none;" id="path460"></path><path d="m 6766.7,9386 c -2.72,0 -5.49,0.1 -8.35,0.3 -87.61,5.3 -90,86.1 -90,86.1 0,0 15.15,5.4 36.82,5.4 18.65,0 42.12,-4 64.94,-19 0,0 24.43,15.3 53.24,15.3 13.77,0 28.52,-3.5 42.1,-13.8 0,0 -18.26,-74.3 -98.75,-74.3" style="fill: rgb(197, 163, 255); fill-opacity: 1; fill-rule: nonzero; stroke: none;" id="path462"></path><path d="m 6622.46,9500.8 c 9.91,-8 20.23,-15.4 31.1,-21.9 10.72,-6.6 21.83,-12.6 33.32,-17.7 22.94,-10 47.14,-17.1 71.88,-19.2 24.74,-2.2 49.72,0.9 73.6,8.2 23.8,7.6 46.29,19.5 67.51,33.7 -9.46,-8.6 -19.63,-16.4 -30.48,-23.4 -10.85,-6.9 -22.6,-12.4 -34.61,-17.3 -12.15,-4.6 -24.83,-7.9 -37.75,-9.7 -12.95,-1.7 -26.07,-2 -39.09,-1.1 -26.02,2.5 -51.36,10.2 -74.26,22.2 -22.87,12 -44.04,27.2 -61.22,46.2" style="fill: rgb(201, 164, 234); fill-opacity: 1; fill-rule: nonzero; stroke: none;" id="path464"></path><path d="m 6688.39,9843.6 c -19.83,5.4 -38.45,9.3 -56.81,11.5 -18.33,2.1 -36.21,2 -53.54,-0.8 -17.22,-3 -34.5,-7.3 -50.95,-15.5 -8.78,-3.1 -16.34,-8.7 -25.19,-12.8 -8.5,-4.6 -16.34,-10.4 -25.89,-15 4.52,9.1 9.85,18.1 16.16,26.3 6.99,7.6 13.65,16 22.52,21.9 16.46,13.5 37.47,21.6 58.84,25.1 21.5,3.4 43.7,1 63.59,-6.1 19.78,-7.3 38.08,-18.5 51.27,-34.6" style="fill: rgb(53, 19, 83); fill-opacity: 1; fill-rule: nonzero; stroke: none;" id="path466"></path><path d="m 6864.34,9843.6 c 15.05,14.3 34.57,23.3 55.09,28.1 20.62,4.6 42.93,4.3 63.87,-1.7 20.78,-6.1 40.65,-16.7 55.34,-32.1 8.09,-6.9 13.66,-16.1 19.69,-24.4 5.25,-9 9.46,-18.5 12.84,-28.1 -8.92,5.7 -15.99,12.4 -23.87,18 -8.29,5.2 -15.11,11.6 -23.45,15.7 -15.33,10.2 -31.96,16.6 -48.68,21.7 -16.86,4.8 -34.59,7.1 -53.05,7.3 -18.48,0 -37.45,-1.6 -57.78,-4.5" style="fill: rgb(53, 19, 83); fill-opacity: 1; fill-rule: nonzero; stroke: none;" id="path468"></path><path d="m 6876.04,8172.6 c 0,0 -78.48,-229.4 -92.74,-351.3 -35.44,-302.6 30.1,-562.4 92.74,-734.7 87.85,-241.6 -656.68,-107.4 -671.33,-100 -14.64,7.3 -629.63,245.2 -629.63,245.2 l -46.35,474.3 -70.79,466.5 32.94,274.6 1385.16,-274.6" style="fill: rgb(109, 33, 171); fill-opacity: 1; fill-rule: nonzero; stroke: none;" id="path470"></path><path d="m 5696.59,8839.6 c 0,0 95.29,-8.3 84.93,-174 -10.36,-165.8 -87.72,-481.2 -87.72,-481.2 0,0 -751.48,-1444.3 -916.18,-1584.8 -8.92,-7.6 -20.21,-11.8 -31.93,-12.2 L 4219.6,6572 c 21.46,29 52.17,49.9 87.07,59.2 l 236.03,62.6 c 9.3,2.4 17.18,8.6 21.8,17 l 75.62,138.1 569.93,1520.1 c 58.14,135.5 196.45,212.9 291.49,325.5 69.45,82.3 145.2,153.2 195.05,145.1" style="fill: rgb(224, 199, 244); fill-opacity: 1; fill-rule: nonzero; stroke: none;" id="path472"></path><path d="m 6659.38,9080.2 c 0,0 -273.28,-318.9 -586.83,67.7 0,0 -342.57,27.9 -595.15,-151.4 -252.59,-179.4 -403.84,-582.3 -403.84,-582.3 0,0 457.59,-230.6 571.07,-241.6 h 1270.25 c 0,0 194.02,14.6 380.71,109.8 0,0 -32.2,640.4 -636.21,797.8" style="fill: rgb(109, 33, 171); fill-opacity: 1; fill-rule: nonzero; stroke: none;" id="path474"></path><path d="m 5848.03,8654.4 c -13.07,-39.2 -24.66,-78.8 -36.38,-118.3 -11.79,-39.6 -22.4,-79.4 -32.92,-119.4 -10.06,-40 -20.22,-80 -28.97,-120.4 -8.68,-40.4 -17.2,-80.9 -23.69,-121.9 l 9.68,9.7 c -12.47,-1.3 -27.82,-0.9 -41.95,0.3 -14.42,0.9 -28.88,3.1 -43.31,5.1 -28.77,5.1 -57.62,10.6 -85.98,18.6 l -21.34,5.6 -21.14,6.5 c -14.06,4.5 -28.24,8.5 -42.14,13.5 l -41.89,14.5 -41.38,16 c -27.71,10.4 -54.74,22.6 -82.17,33.8 l -81,36.9 -80.27,38.9 c -26.4,13.6 -52.88,27.2 -79.62,40.4 25.17,-15.9 50.61,-31.4 76.1,-46.9 25.72,-15.1 51.69,-29.8 77.8,-44.2 26.34,-14 52.96,-27.6 79.67,-41 l 40.68,-18.8 c 13.54,-6.3 27.08,-12.7 41.02,-18.2 54.94,-23.7 111.6,-43.8 169.61,-59.8 l 21.79,-5.8 22.06,-5 c 14.62,-3.7 29.63,-6 44.53,-8.6 15.03,-2 30.06,-4.1 45.34,-5 15.51,-1 30.07,-1.7 47.2,0.2 l 8.34,1 1.33,8.7 c 12.34,81 28.78,161.6 45.92,242.1 l 26.16,120.8 26.92,120.7" style="fill: rgb(235, 209, 255); fill-opacity: 1; fill-rule: nonzero; stroke: none;" id="path476"></path><path d="m 6813.82,8747 c 17.9,-46.8 34.18,-93.9 48.7,-141.3 14.26,-47.5 26.89,-95.3 35.31,-143.8 4.68,-24.2 7.69,-48.6 9.76,-73 2.47,-24.4 2.72,-48.9 1.83,-73.3 -1.82,-48.9 -74.28,-279 -95.6,-324.6 30.08,40.4 108.99,272.5 114.31,323.1 6.12,50.8 1.93,102.1 -6.63,152 -4.75,24.9 -10.31,49.6 -17.21,73.9 -7.21,24.3 -14.87,48.3 -24.08,71.8 -18.11,47 -39.54,92.7 -66.39,135.2" style="fill: rgb(235, 209, 255); fill-opacity: 1; fill-rule: nonzero; stroke: none;" id="path478"></path><path d="m 6141.79,9803.7 c 0,0 469.34,113.3 693.53,432.2 0,0 3.9,290.4 -426.94,224.5 -418.64,-64 -516.63,-471.4 -266.59,-656.7" style="fill: rgb(53, 19, 83); fill-opacity: 1; fill-rule: nonzero; stroke: none;" id="path480"></path><path d="m 7265.42,4925.8 -79.17,-176.6 c -6.53,-14.5 -0.01,-31.7 14.58,-38.2 l 413.48,-185.4 c 29.92,-13.4 58.83,20.6 40.8,48 l -160.01,249.3 c 0,0 -126.49,-23.2 -229.68,102.9" style="fill: rgb(53, 19, 83); fill-opacity: 1; fill-rule: nonzero; stroke: none;" id="path482"></path><path d="m 5554.42,7249 c -122.78,-161.2 -148.62,-379.1 -58.96,-560.9 62.27,-126.2 179.81,-243.8 396.55,-297.2 577.94,-142.3 1307.31,-156.8 1307.31,-156.8 l 13.48,-1396.2 304.22,-34.9 c 0,0 907.76,1881.5 -160.93,2252.1 l -977.83,56.9 -400.69,54.2 c 0,0 -400.95,126.3 -406.95,107.4 -1.27,-4 -7.33,-13 -16.2,-24.6" style="fill: rgb(152, 92, 255); fill-opacity: 1; fill-rule: nonzero; stroke: none;" id="path484"></path><path d="m 7361.77,6196.9 c -15.52,2.8 -31.03,5.4 -46.32,9 -15.3,3.5 -30.43,7.7 -45.39,12.2 -7.5,2.3 -15.06,4.8 -22.45,7.6 7.76,1.6 15.29,3.9 22.78,6.5 14.78,5.3 28.59,12.8 41.56,21.3 12.52,9.2 24.4,19.2 34.76,30.6 10.42,11.3 19.35,23.8 27.24,36.8 l -15.41,-16.7 c -5.52,-5.2 -10.65,-10.6 -16.41,-15.5 -10.97,-10.2 -23.23,-18.7 -35.8,-26.5 -12.66,-7.7 -26.08,-13.9 -39.89,-18.7 -13.73,-4.7 -28.59,-8.1 -42.29,-8.5 l -25.15,-1 22.32,-10.3 c 15.15,-7.1 30.23,-11.7 45.72,-16 15.4,-4.3 31.09,-7.4 46.77,-10.1 15.72,-2.5 31.46,-4.7 47.31,-5.9 15.84,-1.2 31.68,-1.9 47.53,-1.9 -15.69,2.3 -31.36,4.2 -46.88,7.1" style="fill: rgb(235, 209, 255); fill-opacity: 1; fill-rule: nonzero; stroke: none;" id="path486"></path><path d="m 13578.7,13720 h -3413.1 c 50.5,220.2 222.7,394 442,446.8 146.9,-46.6 307.4,-54 465.2,-54 30.1,0 60,0.3 89.7,0.6 376.6,4 753.1,8.1 1129.6,12.1 39.4,0.4 79.1,0.8 118.8,0.8 219.6,0 441,-11.9 642.5,-95.5 188.1,-78 346.7,-213.9 525.3,-310.8" style="fill: rgb(243, 234, 250); fill-opacity: 1; fill-rule: nonzero; stroke: none;" id="path488"></path><path d="M 8485.75,14140 H 7150.78 c -0.63,6.6 -0.98,13.2 -0.98,19.9 0,113.3 91.84,205.1 205.12,205.1 36.2,0 70.19,-9.4 99.72,-25.8 41.71,114.8 151.79,196.8 281.03,196.8 108.62,0 203.71,-57.9 256.06,-144.6 22.79,7.1 47.03,10.9 72.17,10.9 97.22,0 181.06,-57.2 219.69,-139.8 13.29,3.4 27.23,5.3 41.6,5.3 78.27,0 143.76,-54.6 160.56,-127.8" style="fill: rgb(243, 234, 250); fill-opacity: 1; fill-rule: nonzero; stroke: none;" id="path490"></path><path d="m 16296.7,16762.4 c -210.9,6.3 -421.7,17.8 -632.7,29.4 -311.2,17 -622.5,34.1 -933.7,34.1 -68.9,0 -137.9,-0.9 -206.8,-2.7 -5.4,-0.2 -10.8,-0.3 -16.2,-0.5 52.4,80.7 143.4,134.1 246.8,134.1 51.9,0 100.7,-13.5 143,-37.1 59.8,164.6 217.6,282.2 402.9,282.2 155.8,0 292.1,-83.1 367.2,-207.3 32.7,10.1 67.4,15.6 103.5,15.6 139.4,0 259.6,-82.1 315,-200.5 19,4.9 39,7.6 59.6,7.6 57.6,0 110.4,-20.6 151.4,-54.9" style="fill: rgb(243, 234, 250); fill-opacity: 1; fill-rule: nonzero; stroke: none;" id="path492"></path><path d="m 18328.7,12488.8 c 0,0.3 0,0.5 0,0.7 0,-0.2 0,-0.4 0,-0.7 m 0.3,3.5 c 0,0.2 0,0.4 0.1,0.6 -0.1,-0.2 -0.1,-0.4 -0.1,-0.6 m 0.3,3.1 c 0,0.2 0,0.4 0.1,0.6 -0.1,-0.2 -0.1,-0.4 -0.1,-0.6 m 0.3,3.4 c 0.1,0.2 0.1,0.4 0.1,0.7 0,-0.3 0,-0.5 -0.1,-0.7 m 0.4,3.4 c 0,0.1 0,0.1 0,0.2 0,-0.1 0,-0.1 0,-0.2 m 0.2,3.1 c 0.1,0.2 0.1,0.4 0.1,0.6 0,-0.2 0,-0.4 -0.1,-0.6 m 0.4,3.5 c 0,0.1 0,0.2 0,0.3 0,-0.1 0,-0.2 0,-0.3 m 0.3,3.1 c 0,0.1 0,0.3 0,0.5 0,-0.2 0,-0.4 0,-0.5 m 0.3,3.4 c 0,0.1 0,0.3 0,0.4 0,-0.1 0,-0.3 0,-0.4 m 0.6,6.7 c 0,0 0,0.1 0,0.1 0,0 0,-0.1 0,-0.1" style="fill:#ffffff;fill-opacity:1;fill-rule:nonzero;stroke:none" id="path494"></path><path d="m 18326.8,12470 h -2590.6 c 45.9,199.5 224.4,348.4 437.9,348.4 39.2,0 77.2,-5 113.4,-14.5 105.4,225.3 334,381.4 599.1,381.4 68.6,0 134.7,-10.4 196.8,-29.8 142.8,236.4 402.1,394.4 698.3,394.4 202.5,0 387.7,-74 530.2,-196.2 42,-271.5 44.1,-562.5 19.9,-831.6 0,0 0,-0.1 0,-0.1 -0.2,-2.1 -0.4,-4.2 -0.6,-6.3 0,-0.1 0,-0.3 0,-0.4 -0.1,-0.9 -0.2,-1.9 -0.3,-2.9 0,-0.2 0,-0.4 0,-0.5 -0.1,-1 -0.2,-1.9 -0.3,-2.8 0,-0.1 0,-0.2 0,-0.3 -0.1,-0.9 -0.2,-1.9 -0.3,-2.9 0,-0.2 0,-0.4 -0.1,-0.6 0,-1 -0.1,-2 -0.2,-2.9 0,-0.1 0,-0.1 0,-0.2 -0.1,-0.9 -0.2,-1.8 -0.3,-2.7 0,-0.3 0,-0.5 -0.1,-0.7 -0.1,-1 -0.1,-1.9 -0.2,-2.8 -0.1,-0.2 -0.1,-0.4 -0.1,-0.6 -0.1,-0.8 -0.2,-1.7 -0.2,-2.5 -0.1,-0.2 -0.1,-0.4 -0.1,-0.6 -0.1,-0.9 -0.2,-1.8 -0.3,-2.8 0,-0.2 0,-0.4 0,-0.7 -0.1,-0.9 -0.2,-1.9 -0.3,-2.9 v 0 0 c -0.5,-5.3 -1.1,-10.6 -1.6,-15.9" style="fill: rgb(243, 234, 250); fill-opacity: 1; fill-rule: nonzero; stroke: none;" id="path496"></path><path d="M 6142.49,12660 H 3266.3 c 270.01,297.4 771.98,625.6 1268.33,953 114.93,-67.8 211.55,-163.4 280.51,-277.6 61.25,19.1 126.38,29.4 193.92,29.4 261.21,0 486.48,-153.8 590.27,-375.8 35.7,9.3 73.15,14.3 111.76,14.3 210.31,0 386.23,-146.7 431.4,-343.3" style="fill: rgb(243, 234, 250); fill-opacity: 1; fill-rule: nonzero; stroke: none;" id="path498"></path><path d="m 17772.2,14324.5 c -0.1,0.1 -0.2,0.1 -0.3,0.1 0.1,0 0.2,-0.1 0.3,-0.1 m -1.3,0.7 c -0.1,0.1 -0.2,0.1 -0.3,0.2 0.1,-0.1 0.2,-0.2 0.3,-0.2 m -1.3,0.7 c -0.1,0 -0.1,0.1 -0.2,0.1 0.1,0 0.1,-0.1 0.2,-0.1 m -2.2,1.2 c -0.1,0.1 -0.2,0.1 -0.4,0.2 0.2,-0.1 0.3,-0.1 0.4,-0.2 m -1.2,0.6 c -0.2,0.2 -0.4,0.2 -0.6,0.3 0.2,-0.1 0.4,-0.2 0.6,-0.3 m -1.4,0.8 c -0.2,0.1 -0.4,0.2 -0.6,0.3 0.2,-0.1 0.4,-0.2 0.6,-0.3 m -1.3,0.7 c -0.3,0.2 -0.6,0.3 -0.9,0.5 0.3,-0.2 0.6,-0.3 0.9,-0.5 m -1.7,0.9 c -0.4,0.2 -0.7,0.4 -1.1,0.5 0.4,-0.1 0.7,-0.3 1.1,-0.5 m -1.7,0.8 c -0.2,0.2 -0.5,0.3 -0.8,0.5 0.3,-0.1 0.6,-0.3 0.8,-0.5 m -1.4,0.8 c -0.3,0.2 -0.6,0.3 -0.9,0.5 0.3,-0.2 0.6,-0.3 0.9,-0.5 m -1.4,0.7 c -0.5,0.3 -1,0.5 -1.4,0.8 0.4,-0.3 0.9,-0.5 1.4,-0.8 m -647.9,267.1 c -114.4,98.9 -186.7,244.3 -228.3,407.8 0.1,0 0.1,0 0.1,0 41.5,-163.5 113.8,-308.9 228.2,-407.8 m -206.2,1920.6 c 0,0.1 0,0.2 0,0.3 0,-0.1 0,-0.2 0,-0.3 m -0.2,2.3 c 0,0.2 0,0.4 0,0.5 0,-0.1 0,-0.3 0,-0.5 m -0.1,2.4 c 0,0.2 -0.1,0.4 -0.1,0.5 0,-0.1 0.1,-0.3 0.1,-0.5 m -0.4,5.1 c -0.1,0.2 -0.1,0.5 -0.1,0.7 0,-0.2 0,-0.4 0.1,-0.7 m -0.2,2.3 c -0.1,0.3 -0.1,0.6 -0.1,0.9 0,-0.3 0,-0.6 0.1,-0.9 m -0.2,2.2 c 0,0.3 -0.1,0.7 -0.1,1 0,-0.3 0.1,-0.7 0.1,-1 m -0.2,2.2 c -0.1,0.9 -0.2,1.7 -0.2,2.5 0,-0.8 0.1,-1.7 0.2,-2.5 m -0.3,3.1 c 0,0.5 -0.1,0.9 -0.1,1.4 0,-0.5 0.1,-0.9 0.1,-1.4 m -0.2,2.2 c 0,0.5 -0.1,0.9 -0.1,1.4 0,-0.5 0.1,-0.9 0.1,-1.4 m -0.2,2.2 c 0,0.5 -0.1,1 -0.1,1.5 0,-0.5 0.1,-1 0.1,-1.5 m -0.2,2.1 c -0.2,2.5 -0.4,4.9 -0.7,7.4 0.3,-2.5 0.5,-5 0.7,-7.4 m -0.7,7.7 c 0,0.6 -0.1,1.2 -0.2,1.8 0.1,-0.6 0.2,-1.2 0.2,-1.8 m -0.2,1.9 c -0.1,1.3 -0.2,2.6 -0.4,4 -0.1,1.6 -0.3,3.3 -0.5,5 0.2,-1.7 0.4,-3.4 0.5,-5 0.2,-1.3 0.3,-2.7 0.4,-4" style="fill:#ffffff;fill-opacity:1;fill-rule:nonzero;stroke:none" id="path500"></path><path d="m 17399.9,13558.1 c -16.3,0 -32.6,0 -48.9,0.1 -967.1,2.8 -1934.2,5.6 -2901.3,8.4 -262.2,0.8 -532.6,3.2 -773.8,106.1 -33.2,14.2 -65.5,30.1 -97.2,47.3 h 1427.8 c 2.2,23.8 3.5,47.8 3.5,72.2 0,410.8 -333,743.8 -743.8,743.8 -131.3,0 -254.5,-34.1 -361.6,-93.8 -151.3,416.4 -550.4,713.8 -1019.1,713.8 -393.9,0 -738.7,-210.1 -928.5,-524.4 -82.7,25.7 -170.6,39.6 -261.7,39.6 -352.6,0 -656.6,-207.6 -796.7,-507.1 -48.2,12.5 -98.7,19.2 -150.8,19.2 -48.3,0 -95.2,-5.7 -140.2,-16.5 -52.9,16.7 -104.2,38.6 -152.8,67 -357,208.5 -426.9,775.6 -131.2,1064.5 170.2,166.3 412.7,230.2 643.6,287.8 849.1,211.8 1698.1,423.6 2547.2,635.3 234.6,58.5 491.9,132.8 621.5,336.9 43.1,67.9 70.6,148.6 132.9,199.4 65.1,53 153.9,62.1 238.5,65 -29.9,-46.1 -47.3,-101 -47.3,-160.1 0,-9.6 0.5,-19.1 1.4,-28.5 h 1914.2 c -11.8,51.1 -40,95.8 -78.9,128.3 100.3,-3 200.6,-4.7 300.9,-4.7 89.2,0 178.5,1.4 267.7,4.6 15.4,-64.3 26.9,-130.1 33.9,-197.5 0.2,-1.7 0.4,-3.4 0.5,-5 0.2,-1.4 0.3,-2.7 0.4,-4 0,0 0,0 0,-0.1 0.1,-0.6 0.2,-1.2 0.2,-1.8 0,-0.1 0,-0.2 0,-0.3 0.3,-2.5 0.5,-4.9 0.7,-7.4 0.1,-0.2 0.1,-0.4 0.1,-0.6 0,-0.5 0.1,-1 0.1,-1.5 0.1,-0.2 0.1,-0.6 0.1,-0.8 0,-0.5 0.1,-0.9 0.1,-1.4 0.1,-0.3 0.1,-0.5 0.1,-0.8 0,-0.5 0.1,-0.9 0.1,-1.4 0,-0.2 0.1,-0.4 0.1,-0.6 0,-0.8 0.1,-1.6 0.2,-2.5 0,-0.4 0.1,-0.8 0.1,-1.2 0,-0.3 0.1,-0.7 0.1,-1 0,-0.5 0.1,-0.8 0.1,-1.3 0,-0.3 0,-0.6 0.1,-0.9 0,-0.6 0.1,-1.1 0.1,-1.6 0,-0.2 0,-0.5 0.1,-0.7 0.1,-1.5 0.2,-3 0.3,-4.6 0,-0.1 0.1,-0.3 0.1,-0.5 0,-0.6 0.1,-1.2 0.1,-1.9 0,-0.1 0,-0.3 0,-0.5 0.1,-0.6 0.2,-1.3 0.2,-2 0,-0.1 0,-0.2 0,-0.3 15,-197.8 -5.1,-395.8 -27.4,-594.2 -426.8,28.5 -854.2,65.1 -1277.8,65.1 -365,0 -727.1,-27.2 -1083.8,-110.2 -152.5,-35.5 -311,-86.1 -415.5,-202.7 -104.5,-116.7 -128.8,-318.2 -12.1,-422.7 54.1,-48.4 127.2,-68.2 197.8,-85 619.1,-146.4 1253.8,-165.5 1891.9,-165.5 112.5,0 225.2,0.6 337.8,1.2 112.7,0.6 225.3,1.2 338,1.2 9.7,0 19.4,0 29,0 41.6,-163.5 113.9,-308.9 228.3,-407.8 v 0 c 186.5,-161.3 436,-157.4 646.5,-266.3 v 0 c 0.4,-0.3 0.9,-0.5 1.4,-0.8 0.2,0 0.3,-0.1 0.5,-0.2 0.3,-0.2 0.6,-0.3 0.9,-0.5 0.2,-0.1 0.4,-0.2 0.6,-0.3 0.3,-0.2 0.6,-0.3 0.8,-0.5 0.3,-0.1 0.4,-0.2 0.6,-0.3 0.4,-0.1 0.7,-0.3 1.1,-0.5 0.2,-0.2 0.5,-0.3 0.8,-0.4 0.3,-0.2 0.6,-0.3 0.9,-0.5 0.2,-0.1 0.5,-0.3 0.7,-0.4 0.2,-0.1 0.4,-0.2 0.6,-0.3 0.3,-0.2 0.6,-0.3 0.8,-0.5 0.2,-0.1 0.4,-0.1 0.6,-0.3 0.3,-0.1 0.6,-0.3 0.8,-0.4 0.2,-0.1 0.3,-0.1 0.4,-0.2 0.7,-0.4 1.4,-0.7 2,-1.1 0.1,0 0.1,-0.1 0.2,-0.1 0.3,-0.2 0.6,-0.4 1,-0.5 0.1,-0.1 0.2,-0.1 0.3,-0.2 0.4,-0.2 0.7,-0.4 1,-0.6 0.1,0 0.2,0 0.3,-0.1 204.7,-112.4 345.1,-313.3 435.9,-558.1 -59.6,-49.7 -126.1,-91 -197.9,-121.4 -190.7,-80.5 -402.5,-86.9 -610.3,-86.9" style="fill: rgb(235, 217, 252); fill-opacity: 1; fill-rule: nonzero; stroke: none;" id="path502"></path><path d="m 15006.5,13720 h -1427.8 c -178.6,96.9 -337.2,232.8 -525.3,310.8 -201.5,83.6 -422.9,95.5 -642.5,95.5 -39.7,0 -79.4,-0.4 -118.8,-0.8 -376.5,-4 -753,-8.1 -1129.6,-12.1 -29.7,-0.3 -59.6,-0.6 -89.7,-0.6 -157.8,0 -318.3,7.4 -465.2,54 45,10.8 91.9,16.5 140.2,16.5 52.1,0 102.6,-6.7 150.8,-19.2 140.1,299.5 444.1,507.1 796.7,507.1 91.1,0 179,-13.9 261.7,-39.6 189.8,314.3 534.6,524.4 928.5,524.4 468.7,0 867.8,-297.4 1019.1,-713.8 107.1,59.7 230.3,93.8 361.6,93.8 410.8,0 743.8,-333 743.8,-743.8 0,-24.4 -1.3,-48.4 -3.5,-72.2" style="fill: rgb(245, 238, 252); fill-opacity: 1; fill-rule: nonzero; stroke: none;" id="path504"></path><path d="m 16375.6,16634.1 h -1914.2 c -0.9,9.4 -1.4,18.9 -1.4,28.5 0,59.1 17.4,114 47.3,160.1 5.4,0.2 10.8,0.3 16.2,0.5 68.9,1.8 137.9,2.7 206.8,2.7 311.2,0 622.5,-17.1 933.7,-34.1 211,-11.6 421.8,-23.1 632.7,-29.4 38.9,-32.5 67.1,-77.2 78.9,-128.3" style="fill: rgb(245, 238, 252); fill-opacity: 1; fill-rule: nonzero; stroke: none;" id="path506"></path><path d="m 3537.35,5870.2 c 0,0 -197.35,-200.2 -107.35,-470.2 0,0 60,140 120,180 0,0 -10,-170 60,-240 0,0 61.8,376.7 250.9,413.3 l -323.55,116.9" style="fill: rgb(152, 92, 255); fill-opacity: 1; fill-rule: nonzero; stroke: none;" id="path508"></path><path d="m 5788.66,3672.1 c 0,0 121.34,-142.1 111.34,-322.1 0,0 66.63,92.1 83.32,161 0,0 66.68,-31 106.68,-111 0,0 74.75,190.6 -2.63,355.3 l -298.71,-83.2" style="fill: rgb(175, 71, 255); fill-opacity: 1; fill-rule: nonzero; stroke: none;" id="path510"></path><path d="m 3914.88,2744.9 c 0,0 -204.88,-274.9 -134.88,-714.9 0,0 70,180 230,280 0,0 70,-290 110,-390 0,0 159.86,583.5 349.93,631.7 l -555.05,193.2" style="fill: rgb(109, 33, 171); fill-opacity: 1; fill-rule: nonzero; stroke: none;" id="path512"></path></g></g></svg>
