<svg xmlns="http://www.w3.org/2000/svg" version="1.1" xmlns:xlink="http://www.w3.org/1999/xlink" xmlns:svgjs="http://svgjs.com/svgjs" width="512" height="512" x="0" y="0" viewBox="0 0 512 512" style="enable-background:new 0 0 512 512" xml:space="preserve" class=""><g><g xmlns="http://www.w3.org/2000/svg"><g><path d="m401.391 148.454-18.424 18.433h-279.652c-17.154 0-31.061-13.906-31.061-31.061v-39.45c0-17.154 13.906-31.061 31.061-31.061h281.528l16.549 12.779c-8.945 7.407-14.261 17.364-15.958 27.809-2.486 15.333 2.83 31.694 15.957 42.551z" data-original="#ecf4ff" class="" style="fill: rgb(239, 219, 255);"></path><path d="m401.391 78.097c-8.945 7.407-14.261 17.364-15.958 27.809h-313.179v-16.447c0-13.333 10.809-24.142 24.142-24.142h288.446z" data-original="#bac0c9" class="" style="fill: rgb(224, 170, 255);"></path><path d="m85.166 112.417c-.474 19.79 15.484 36.047 35.178 36.047h288.088c9.062 0 16.408 7.346 16.408 16.408 0 9.062-7.346 16.408-16.408 16.408l-152.432 32.822-135.656-32.822c-18.78 0-35.779-7.613-48.09-19.924-12.35-12.35-19.975-29.435-19.914-48.304.121-37.636 31.379-67.781 69.016-67.781h287.077c9.062 0 16.408 7.346 16.408 16.408 0 9.062-7.346 16.408-16.408 16.408h-287.429c-19.211 0-35.378 15.124-35.838 34.33z" data-original="#dd636e" class="" style="fill: rgb(157, 78, 221);"></path><path d="m96.916 161.357c12.311 12.311 29.309 19.924 48.089 19.924h-24.662c-18.78 0-35.778-7.613-48.089-19.924-12.352-12.352-19.975-29.432-19.913-48.305.113-37.632 31.379-67.786 69.012-67.786h24.662c-37.632 0-68.888 30.153-69.012 67.786-.063 18.873 7.561 35.953 19.913 48.305z" data-original="#da4a54" style="fill: rgb(127, 45, 208);"></path></g><g><path d="m49.926 284.47 18.424 18.433h374.224c16.556 0 29.977-13.421 29.977-29.977v-41.616c0-16.556-13.421-29.977-29.977-29.977h-376.099l-16.549 12.779c8.945 7.407 14.261 17.364 15.958 27.809 2.485 15.33-2.831 31.691-15.958 42.549z" data-original="#ecf4ff" class="" style="fill: rgb(239, 219, 255);"></path><path d="m49.926 214.112c8.945 7.407 14.261 17.364 15.958 27.809h406.667v-22.944c0-9.745-7.9-17.645-17.645-17.645h-388.431z" data-original="#bac0c9" class="" style="fill: rgb(224, 170, 255);"></path><path d="m459.639 248.432c.474 19.79-15.484 36.047-35.178 36.047h-381.576c-9.062 0-16.408 7.346-16.408 16.408 0 9.062 7.346 16.408 16.408 16.408h32.946l52.386 15.571 296.244-15.571c18.78 0 35.779-7.613 48.09-19.924 12.35-12.35 19.975-29.435 19.914-48.304-.121-37.636-31.379-67.781-69.016-67.781h-380.564c-9.062 0-16.408 7.346-16.408 16.408 0 9.062 7.346 16.408 16.408 16.408h380.916c19.211.001 35.378 15.124 35.838 34.33z" data-original="#f5de87" style="fill: rgb(199, 125, 255);"></path><g fill="#f1ce73"><path d="m60.843 300.885c0 4.533 1.834 8.633 4.801 11.61 2.977 2.967 7.077 4.801 11.61 4.801h-34.367c-4.533 0-8.633-1.834-11.61-4.801-2.967-2.977-4.801-7.077-4.801-11.61 0-9.066 7.345-16.411 16.411-16.411h34.367c-9.066 0-16.411 7.345-16.411 16.411z" data-original="#f1ce73" style="fill: rgb(157, 78, 221);"></path><path d="m60.843 197.692c0 4.533 1.834 8.633 4.801 11.6 2.977 2.977 7.077 4.811 11.61 4.811h-34.367c-4.533 0-8.633-1.834-11.61-4.811-2.967-2.967-4.801-7.067-4.801-11.6 0-9.066 7.345-16.411 16.411-16.411h34.367c-9.066 0-16.411 7.345-16.411 16.411z" data-original="#f1ce73" style="fill: rgb(157, 78, 221);"></path></g></g><path d="m486.235 430.667-20.243 20.253h-407.201c-20.384 0-36.909-16.525-36.909-36.909v-37.781c0-20.384 16.525-36.909 36.909-36.909h409.262l18.183 14.041c-9.828 8.139-15.669 19.079-17.534 30.555-2.731 16.844 3.11 34.82 17.533 46.75z" data-original="#ecf4ff" class="" style="fill: rgb(239, 219, 255);"></path><path d="m409.023 348.025v52.107c0 6.525-6.913 10.729-12.707 7.729l-29.772-15.42c-2.511-1.3-5.496-1.3-8.007 0l-29.76 15.418c-5.794 3.001-12.707-1.203-12.707-7.728v-52.105c0-4.807 3.897-8.704 8.704-8.704h75.546c4.806-.001 8.703 3.896 8.703 8.703z" data-original="#bac0c9" class="" style="fill: rgb(224, 170, 255);"></path><path d="m486.235 353.362c-9.828 8.139-15.669 19.079-17.534 30.555h-446.82v-21.115c0-12.968 10.513-23.481 23.481-23.481h422.69z" data-original="#bac0c9" class="" style="fill: rgb(224, 170, 255);"></path><path d="m36.068 391.071c-.521 21.744 17.013 39.606 38.651 39.606h419.252c9.957 0 18.028 8.071 18.028 18.028 0 9.957-8.071 18.028-18.028 18.028h-419.252c-20.635 0-39.312-8.365-52.838-21.891-13.57-13.569-21.947-32.341-21.881-53.073.133-41.353 34.477-74.474 75.83-74.474h418.141c9.957 0 18.028 8.071 18.028 18.028 0 9.957-8.071 18.028-18.028 18.028h-418.526c-21.109.001-38.872 16.618-39.377 37.72z" data-original="#b7e4fc" style="fill: rgb(90, 24, 154);"></path><path d="m28.777 391.767c.133-41.353 34.477-74.474 75.83-74.474h-28.776c-41.353 0-75.697 33.121-75.83 74.474-.067 20.732 8.311 39.504 21.881 53.073 13.526 13.526 32.203 21.891 52.838 21.891h28.776c-20.635 0-39.312-8.365-52.838-21.891-13.57-13.569-21.948-32.341-21.881-53.073z" data-original="#97ccfa" style="fill: rgb(60, 9, 108);"></path><path d="m424.465 259.492v115.203c0 6.732-7.133 11.07-13.11 7.974l-28.047-14.527c-3.339-1.729-7.31-1.729-10.649.001l-28.036 14.525c-5.978 3.097-13.111-1.242-13.111-7.974v-115.202z" data-original="#dd636e" class="" style="fill: rgb(157, 78, 221);"></path><path d="m331.512 259.492h92.953v32.976h-92.953z" data-original="#da4a54" style="fill: rgb(127, 45, 208);"></path></g></g></svg>